<svg xmlns="http://www.w3.org/2000/svg" viewBox="0 0 17.38 36.39"><defs><style>.cls-1{fill:#fff;}</style></defs><title>Recurso 6</title><g id="Capa_2" data-name="Capa 2"><g id="Capa_1-2" data-name="Capa 1"><path class="cls-1" d="M17.26,10.71a.45.45,0,0,0-.34-.15H11.79V8.29c0-1.25.8-1.35,1-1.35h3.94a.45.45,0,0,0,.45-.45v-6A.46.46,0,0,0,16.77,0L11.19,0c-5.91,0-8,4.09-8,7.92v2.64H.46A.45.45,0,0,0,0,11v7.25a.45.45,0,0,0,.46.45H3.62V35.94a.46.46,0,0,0,.46.45h6.8a.45.45,0,0,0,.45-.45V31.86a.46.46,0,1,0-.91,0v3.62H4.54V18.27a.46.46,0,0,0-.46-.46H.91V11.47H3.63A.45.45,0,0,0,4.08,11V7.92c0-6.67,5.93-7,7.11-7l5.12,0V6H12.83a2,2,0,0,0-2,2.26V11a.46.46,0,0,0,.46.45h5.09l-.56,6.34h-5a.45.45,0,0,0-.46.46v5.89a.46.46,0,0,0,.91,0V18.72h4.94a.46.46,0,0,0,.46-.41l.65-7.25A.44.44,0,0,0,17.26,10.71Z"/></g></g></svg>