<svg xmlns="http://www.w3.org/2000/svg" viewBox="0 0 150.23 36.39"><defs><style>.cls-1{fill:#fff;}</style></defs><title>Recurso 4</title><g id="Capa_2" data-name="Capa 2"><g id="Capa_1-2" data-name="Capa 1"><path class="cls-1" d="M83.81,6.6a.46.46,0,0,0-.54-.13A13.57,13.57,0,0,1,81,7.24a7.65,7.65,0,0,0,1.89-3.06.46.46,0,0,0-.3-.57A.45.45,0,0,0,82,3.9a6.81,6.81,0,0,1-3,3.73.47.47,0,0,0-.21.54.46.46,0,0,0,.49.3,15.16,15.16,0,0,0,2.83-.6,14.22,14.22,0,0,1-2.59,2.37.48.48,0,0,0-.2.4c0,.3,0,.6,0,.91a.46.46,0,0,0,.46.45.46.46,0,0,0,.46-.45c0-.24,0-.48,0-.71a15,15,0,0,0,3.55-3.69A.45.45,0,0,0,83.81,6.6Z"/><path class="cls-1" d="M82.87,3.81a.46.46,0,0,0-.63-.16A14.26,14.26,0,0,1,78,5.29,7.86,7.86,0,0,0,72.5,3.06a7.72,7.72,0,0,0-7.77,7.65,7.33,7.33,0,0,0,.09,1.15A20.47,20.47,0,0,1,50.67,4.54a.48.48,0,0,0-.39-.16.45.45,0,0,0-.36.22,7.52,7.52,0,0,0,1.15,9.15,5.67,5.67,0,0,1-1.47-.6.45.45,0,0,0-.46,0,.44.44,0,0,0-.23.4v.09a7.68,7.68,0,0,0,4.26,6.85,8.67,8.67,0,0,1-1.25-.12.46.46,0,0,0-.51.59,7.71,7.71,0,0,0,6,5.19,14.43,14.43,0,0,1-9.51,2.19.44.44,0,0,0-.48.3.45.45,0,0,0,.18.54A21.43,21.43,0,0,0,59,32.47a20.53,20.53,0,0,0,17.49-9,.46.46,0,0,0-.12-.64.47.47,0,0,0-.64.12A19.61,19.61,0,0,1,59,31.56a20.61,20.61,0,0,1-9.3-2.22,15.19,15.19,0,0,0,9.2-3.18.45.45,0,0,0-.27-.81,6.87,6.87,0,0,1-6.13-4,8,8,0,0,0,2.76-.24.44.44,0,0,0,.33-.45.47.47,0,0,0-.36-.44,6.77,6.77,0,0,1-5.42-5.93,7.61,7.61,0,0,0,2.76.59.43.43,0,0,0,.45-.31.45.45,0,0,0-.19-.52,6.75,6.75,0,0,1-3.09-5.61,6.66,6.66,0,0,1,.63-2.81,21.41,21.41,0,0,0,15,7.17.48.48,0,0,0,.37-.17.43.43,0,0,0,.09-.39,7.27,7.27,0,0,1-.17-1.54A6.8,6.8,0,0,1,72.5,4a6.9,6.9,0,0,1,5,2.13.46.46,0,0,0,.42.13,15.12,15.12,0,0,0,4.78-1.8A.47.47,0,0,0,82.87,3.81Z"/><path class="cls-1" d="M137.49,14.34a6.71,6.71,0,0,0-10.91,0,6.73,6.73,0,1,0,10.91,0ZM132,24.08a5.8,5.8,0,1,1,5.81-5.81A5.81,5.81,0,0,1,132,24.08Z"/><path class="cls-1" d="M146.54,14.18h-5.48a.47.47,0,0,0-.39.22.48.48,0,0,0,0,.45,8.27,8.27,0,0,1,.67,3.43,9.28,9.28,0,0,1-18.56,0,8.46,8.46,0,0,1,.66-3.44.45.45,0,0,0,0-.45.48.48,0,0,0-.39-.22h-5.48a.47.47,0,0,0-.46.46V29.19a4.14,4.14,0,0,0,4,4H143a4.13,4.13,0,0,0,4-4V14.64A.46.46,0,0,0,146.54,14.18Zm-.46,15A3.24,3.24,0,0,1,143,32.31H121.11A3.24,3.24,0,0,1,118,29.19V15.1h4.33a10.2,10.2,0,1,0,19.41,0h4.34V29.19Z"/><path class="cls-1" d="M146,4.24a.5.5,0,0,0-.32-.14l-6,0a.46.46,0,0,0-.45.46l0,6a.45.45,0,0,0,.14.32.42.42,0,0,0,.32.13h0l6,0a.46.46,0,0,0,.46-.46v-6A.43.43,0,0,0,146,4.24Zm-.78,5.9-5.06,0V5l5,0Z"/><path class="cls-1" d="M149.71,17.81a.46.46,0,0,0-.46.46V29.19A6.22,6.22,0,0,1,143,35.48H121.11a6.22,6.22,0,0,1-6.28-6.29V7.34a6.22,6.22,0,0,1,6.28-6.29H143a6.29,6.29,0,0,1,6.36,6.36.47.47,0,0,0,.46.46.46.46,0,0,0,.45-.46A7.19,7.19,0,0,0,143,.14H121.11a7.12,7.12,0,0,0-7.2,7.2V29.19a7.12,7.12,0,0,0,7.2,7.2H143a7.13,7.13,0,0,0,7.21-7.2V18.27A.46.46,0,0,0,149.71,17.81Z"/><path class="cls-1" d="M17.26,10.71a.45.45,0,0,0-.34-.15H11.79V8.29c0-1.25.8-1.35,1-1.35h3.94a.45.45,0,0,0,.45-.45v-6A.46.46,0,0,0,16.77,0L11.19,0c-5.91,0-8,4.09-8,7.92v2.64H.46A.45.45,0,0,0,0,11v7.25a.45.45,0,0,0,.46.45H3.62V35.94a.46.46,0,0,0,.46.45h6.8a.45.45,0,0,0,.45-.45V31.86a.46.46,0,1,0-.91,0v3.62H4.54V18.27a.46.46,0,0,0-.46-.46H.91V11.47H3.63A.45.45,0,0,0,4.08,11V7.92c0-6.67,5.93-7,7.11-7l5.12,0V6H12.83a2,2,0,0,0-2,2.26V11a.46.46,0,0,0,.46.45h5.09l-.56,6.34h-5a.45.45,0,0,0-.46.46v5.89a.46.46,0,0,0,.91,0V18.72h4.94a.46.46,0,0,0,.46-.41l.65-7.25A.44.44,0,0,0,17.26,10.71Z"/></g></g></svg>