<svg xmlns="http://www.w3.org/2000/svg" viewBox="0 0 36.32 36.25"><defs><style>.cls-1{fill:#fff;}</style></defs><title>Recurso 7</title><g id="Capa_2" data-name="Capa 2"><g id="Capa_1-2" data-name="Capa 1"><path class="cls-1" d="M23.58,14.21a6.7,6.7,0,0,0-10.91,0,6.73,6.73,0,1,0,10.91,0Zm-5.45,9.73a5.8,5.8,0,1,1,5.81-5.81A5.82,5.82,0,0,1,18.13,23.94Z"/><path class="cls-1" d="M32.62,14.05H27.15a.46.46,0,0,0-.39.21.45.45,0,0,0,0,.45,8.27,8.27,0,0,1,.67,3.43,9.29,9.29,0,0,1-18.57,0,8.45,8.45,0,0,1,.67-3.44.45.45,0,0,0,0-.45.46.46,0,0,0-.39-.21H3.63a.46.46,0,0,0-.46.45V29.05a4.13,4.13,0,0,0,4,4H29.05a4.13,4.13,0,0,0,4-4V14.5A.45.45,0,0,0,32.62,14.05Zm-.45,15a3.25,3.25,0,0,1-3.12,3.12H7.2a3.24,3.24,0,0,1-3.11-3.12V15H8.42a10.2,10.2,0,1,0,19.41,0h4.34V29.05Z"/><path class="cls-1" d="M32,4.1A.55.55,0,0,0,31.72,4l-6,0a.46.46,0,0,0-.45.46l0,6a.45.45,0,0,0,.14.32.42.42,0,0,0,.32.13h0l6,0a.46.46,0,0,0,.46-.45v-6A.43.43,0,0,0,32,4.1ZM31.26,10,26.2,10V4.9l5.05,0Z"/><path class="cls-1" d="M35.8,17.67a.45.45,0,0,0-.46.46V29.05a6.22,6.22,0,0,1-6.29,6.29H7.2A6.22,6.22,0,0,1,.91,29.05V7.2A6.23,6.23,0,0,1,7.2.91H29.05a6.29,6.29,0,0,1,6.36,6.36.46.46,0,1,0,.91,0A7.19,7.19,0,0,0,29.05,0H7.2A7.12,7.12,0,0,0,0,7.2V29.05a7.12,7.12,0,0,0,7.2,7.2H29.05a7.12,7.12,0,0,0,7.2-7.2V18.13A.45.45,0,0,0,35.8,17.67Z"/></g></g></svg>