<svg xmlns="http://www.w3.org/2000/svg" viewBox="0 0 36.53 29.41"><defs><style>.cls-1{fill:#fff;}</style></defs><title>Recurso 8</title><g id="Capa_2" data-name="Capa 2"><g id="Capa_1-2" data-name="Capa 1"><path class="cls-1" d="M36.43,3.54a.46.46,0,0,0-.54-.13,14.56,14.56,0,0,1-2.25.77,7.65,7.65,0,0,0,1.89-3.06.46.46,0,0,0-.3-.57.45.45,0,0,0-.57.29,6.81,6.81,0,0,1-3,3.73.45.45,0,0,0,.28.84,15.16,15.16,0,0,0,2.83-.6,14.22,14.22,0,0,1-2.59,2.37.47.47,0,0,0-.2.39c0,.31,0,.61,0,.91a.46.46,0,0,0,.92,0c0-.23,0-.47,0-.7a15,15,0,0,0,3.55-3.7A.44.44,0,0,0,36.43,3.54Z"/><path class="cls-1" d="M35.49.75a.46.46,0,0,0-.63-.16A14.15,14.15,0,0,1,30.6,2.23,7.86,7.86,0,0,0,25.12,0a7.72,7.72,0,0,0-7.77,7.65,7.43,7.43,0,0,0,.09,1.15A20.47,20.47,0,0,1,3.29,1.48a.48.48,0,0,0-.39-.16.45.45,0,0,0-.36.22,7.52,7.52,0,0,0,1.15,9.15,5.49,5.49,0,0,1-1.47-.61.47.47,0,0,0-.46,0,.44.44,0,0,0-.23.4v.09a7.68,7.68,0,0,0,4.26,6.85,8.67,8.67,0,0,1-1.25-.12.43.43,0,0,0-.42.15.44.44,0,0,0-.09.44,7.72,7.72,0,0,0,6,5.18,14.38,14.38,0,0,1-9.51,2.2.45.45,0,0,0-.48.3.46.46,0,0,0,.18.54,21.46,21.46,0,0,0,11.45,3.3,20.53,20.53,0,0,0,17.49-9,.46.46,0,0,0-.76-.52,19.6,19.6,0,0,1-16.73,8.61,20.61,20.61,0,0,1-9.3-2.21,15.19,15.19,0,0,0,9.2-3.18.46.46,0,0,0-.27-.82,6.83,6.83,0,0,1-6.12-4,7.92,7.92,0,0,0,2.75-.24.44.44,0,0,0,.33-.45.45.45,0,0,0-.36-.44,6.77,6.77,0,0,1-5.42-5.93,7.87,7.87,0,0,0,2.76.59.43.43,0,0,0,.45-.32A.47.47,0,0,0,5.5,11a6.71,6.71,0,0,1-3.1-5.6A6.66,6.66,0,0,1,3,2.58,21.41,21.41,0,0,0,18,9.75a.48.48,0,0,0,.37-.17.43.43,0,0,0,.09-.39,7.27,7.27,0,0,1-.17-1.54A6.81,6.81,0,0,1,25.12.91a6.94,6.94,0,0,1,5,2.13.44.44,0,0,0,.42.14,15.12,15.12,0,0,0,4.78-1.8A.47.47,0,0,0,35.49.75Z"/></g></g></svg>