<?xml version="1.0" encoding="utf-8"?>
<!-- Generator: Adobe Illustrator 24.0.3, SVG Export Plug-In . SVG Version: 6.00 Build 0)  -->
<svg version="1.1" id="Capa_1" xmlns="http://www.w3.org/2000/svg" xmlns:xlink="http://www.w3.org/1999/xlink" x="0px" y="0px"
	 viewBox="0 0 612 792" style="enable-background:new 0 0 612 792;" xml:space="preserve">
<style type="text/css">
	.st0{fill-rule:evenodd;clip-rule:evenodd;fill:none;stroke:#FFCD1C;stroke-width:2;stroke-miterlimit:10;}
</style>
<path class="st0" d="M332.2,451.15c-1.62-0.82-2.75-2.41-3.78-4.14c-7.98-14.14-8.35-33.34-11.19-52.28
	c3.68,2.68,10.17,6.26,16.19,3.81c-11.03-8.64-19.27-23.24-16.19-43.54c-10.99-10.06-24.87-20.82-31.82-35.19
	c-2.42-4.87-4.97-11.39-2.91-17.38c5.56,16.65,15.06,27.25,27.32,38.47c12.98,12.05,28.34,24.4,26.02,50.59
	c3.44-1.69,3.91-6.89,4.2-10.76c2.52-33.24-22.81-45.83-38.94-60.92c-5.17-4.77-10.5-10.7-12.02-17.75
	c5.26,3.38,10.53,9.67,17.81,14.01c11.66,7.05,27.18,9.21,38.51,2.55c3.28-1.99,7.78-4.24,8.24-7.91
	c-12.02,0.56-21.19-1.16-29.73-3.67c-5.73-1.69-12.22-3.61-15.33-7.42c9.87-0.93,18.05-3.51,20.69-11.69
	c-6.39,0.2-15.13,1.43-19.47-1.59c11.66-2.09,23.31-4.01,26.02-15.03c-8.44,0.33-16.99,4.83-25.66,2.12
	c11.03-4.17,25.63-4.83,27.78-17.81c-8.58,0.46-18.38,7.65-27.78,5.83c11.29-5.53,28.44-7.52,28.28-23.18
	c-6.82,0.76-14.83,8.05-22.05,7.02c30.86-18.74,61.65-42.85,82.01-74.6c8.84-13.58,25.1-40.36,9.11-56.29c-0.37,0-0.76,0-1.23,0
	c0,0.56-0.56,0.56-0.36,1.23c-2.09,22.05-10.33,42.38-20.36,58.01c-9.67,15.33-21.42,28.71-34.73,39.83
	c-13.61,11.29-29.73,20.3-43.08,31.45c-7.48,6.09-11.26,12.48-14.9,22.32c-3.57,9.57-7.61,18.44-14.5,22.75
	c-2.25,1.42-5.76,3.94-9.14,2.09c2.81-3.21,5.99-4.34,7.85-6.59c3.74-4.54,5.93-12.52,8.34-20.36c2.28-7.35,5-14.2,8.67-20.2
	c13.01-21.75,40.86-37.18,58.37-57.18c8.81-10.1,18.74-22.58,19.87-38.11c0.93-12.45-4.14-17.62-13.21-19.87
	c0.56,4.24,3.61,7.98,2.81,14.87c-1.29,13.74-12.38,28.87-20.2,38.51c-8.71,10.63-19.24,19.87-29.83,28.97
	c-9.93,8.61-22.15,18.01-28.64,30.36c-3.01,5.73-5.63,15.13-7.48,21.92c-0.96,4.11-3.18,20.53-9.01,20.27
	c-3.48-0.1-5.07-7.85-5-13.34c0.4-27.95,26.56-40.26,35.59-58.74c0.86-1.69,1.89-5.16,2.05-7.42c0.96-9.57-4.04-12.98-8.24-17.05
	c12.05,1.62,27.74,0.76,26.92-11.59c-1.99,0.66-3.21,2.91-5.83,3.81c-17.45,5.63-47.18-21.09-59.96-5.5
	c-1.62,0.76,0.83,3.34-0.5,3.81c-3.18,0-6.52-0.13-9.14,0.33c-0.76-2.35-1.72-4.5-2.45-6.95c-1.69,0.66-4.24,0.46-5.83,1.23
	c1.39,1.79,2.71,3.58,2.92,6.62c-6.49,1.72-12.52,3.97-13.64,11.19c4.24-1.46,9.77-3.77,14.47-3.31c0,2.98-0.57,5.56-1.69,7.45
	c-1.12,1.32-5.73-0.73-6.19,1.23c-0.3,3.11,3.67,1.99,4.14,4.14c-1.22,2.55-2.65,4.8-4.5,6.59c-6.03-7.25-13.41-0.3-19.9,1.33
	c-1.59,0.4-2.81-0.17-4.14,0.83c5.1,8.84,14.7,0.13,22.31-0.43c-2.25,4.83-13.37,6.45-15.26,12.41c-1.39,4.31,0.56,9.47,6.62,9.47
	c-1.52-5.33,5.56-7.52,7.05-11.56c0.46-1.39-0.46-3.31,0-4.5c0.76-2.12,3.31-1.79,4.5-3.34c1.52,11.42,20,10.76,20.36-1.26
	c-2.71,1.13-3.67,3.14-6.19,2.91c-3.25-0.43-5.69-6.85-11.62-4.54c2.55-2.65,3.94-6.49,6.59-9.14c9.8-1.29,24.77-6.03,28.61,4.57
	c0.86,2.38,0.76,6.52-0.46,9.57c-2.81,7.05-11.75,13.44-18.14,18.51c-19.6,15.76-45.03,32.84-47.29,64.23
	c-2.05,28.41,12.98,44.8,30.23,55.1c16.49,9.83,34.93,14.24,56.78,17.85c3.74,8.11,4.97,21.98,1.23,31.09
	c4.5-0.93,7.05-5.93,9.93-7.06c2.12,16.36,5.89,31.06,11.16,43.84c1.79,4.24,4.97,8.08,4.97,12.85c-7.98,2.48-24.67-10.3-26.92,2.02
	c-7.42-1.79-12.68,5.5-7.81,9.64c2.45-2.82,5.1-5.37,10.73-5c-3.68,1.99-6.66,10.16,0.86,10.36c0.46-1.22,1.02-2.61,2.05-3.74
	c6.49-6.73,35.96-5.96,48.04-3.28c2.71,0.53,4.7,3.94,6.19,4.5c2.25-1.88,5.92-3.57,5-7.84C353.65,448.8,338.82,454.63,332.2,451.15
	L332.2,451.15z M342.1,235.37c1.99,3.87,1.42,10.16-0.83,13.28c23.77-13.44,47.21-28.91,62.97-50.16
	c5.27-7.09,11.46-15.23,12.02-25.26c-0.27,0-0.57,0-0.83,0C395.07,198.09,370.84,218.92,342.1,235.37L342.1,235.37z M374.88,207.13
	c9.21-6.02,18.21-14.73,27.28-24.37c9.5-10.1,23.64-23.97,17.41-41.82c-0.59-0.1-0.59-0.56-1.22-0.46
	c-8.74,24.11-22.28,42.98-38.14,59.24C378.16,201.77,374.88,203.75,374.88,207.13L374.88,207.13z M325.64,518.4
	c0-19.17,11.39-30.92,28.74-30.92c8.18,0,15.83,2.25,21.92,6.66l0.13-13.64c-7.12-1.72-13.51-2.58-19.14-2.58
	c-12.42,0-22.85,3.31-31.06,9.77c-9.47,7.49-14.7,18.48-14.7,31.16c0,12.41,5.07,23.04,14.44,30.13c7.08,5.43,15.66,8.22,25.4,8.22
	c7.88,0,16.92-1.86,26.65-5.66l0.27-13.11c-8.08,6.16-16.09,9.14-24.63,9.14C336.74,547.54,325.64,536.28,325.64,518.4L325.64,518.4
	z M299.45,496.42c-2.78-3.15-6.39-5.63-10.3-7.16c-5.03-1.85-11.13-2.58-16.82-2.22c-0.23,8.51-0.26,17.05-0.23,25.56l18.61-7.68
	l-0.47,20.23c-4.3-2.19-11.12-4.57-18.14-4.97c0,4.14,0.03,8.28,0.03,12.35c0.2,7.68-0.1,16.29,6.46,21.45
	c-0.13,0.63-0.4,1.16-0.83,1.69c-1.56,0.06-3.11,0.06-4.57,0.06l0.03,0.06h-19c0.13-0.29,0.26-0.59,0.36-0.89
	c-0.13-0.3-0.23-0.5-0.36-0.7c0.33-0.3,0.63-0.6,0.93-0.89c1.82-5.53,2.58-11.39,2.58-17.82v-37.35c0-5.53-0.53-10.59-1.86-15.43
	c-0.7-1.16-1.56-2.12-2.65-3.01c0.13-0.46,0.27-0.96,0.56-1.39h0.63c-0.07-0.17-0.1-0.3-0.2-0.47h45.26
	c-0.13,6.52,0.2,12.68,1.06,17.62C300.18,495.99,299.88,496.32,299.45,496.42L299.45,496.42z M226.81,537.51
	c-2.78,3.15-6.39,5.66-10.3,7.15c-5.07,1.79-11.12,2.58-16.79,2.19c-0.4-15.17-0.23-30.4-0.23-45.5c0.23-7.65-0.13-16.26,6.46-21.46
	c-0.13-0.63-0.4-1.12-0.79-1.66c-8.08-0.1-14.63,0.03-22.35-0.17c-0.66,0.3-0.86,1.09-1.16,1.66c1.82,1.56,3.34,3.58,3.78,5.99
	c1.12,4.41,0.99,9.57,0.99,14.34c-0.13,13.41,0.16,26.89-0.4,40.36c-0.26,5.07-1.29,10.46-5.43,13.81c0.13,0.4,0.27,0.93,0.56,1.36
	c13.48,0,27.09,0.5,40.63,0.23c2.09-5.72,4.47-11.52,6.13-17.35C227.6,537.94,227.24,537.61,226.81,537.51L226.81,537.51z
	 M236.71,541.54c4.14,0,7.48,3.35,7.48,7.45c0,4.14-3.34,7.48-7.48,7.48c-4.07,0-7.42-3.34-7.42-7.48
	C229.29,544.89,232.63,541.54,236.71,541.54L236.71,541.54z M292.5,541.54c4.14,0,7.48,3.35,7.48,7.45c0,4.14-3.34,7.48-7.48,7.48
	c-4.07,0-7.45-3.34-7.45-7.48C285.05,544.89,288.43,541.54,292.5,541.54L292.5,541.54z M393.62,541.54c4.14,0,7.48,3.35,7.48,7.45
	c0,4.14-3.34,7.48-7.48,7.48c-4.14,0-7.45-3.34-7.45-7.48C386.17,544.89,389.48,541.54,393.62,541.54L393.62,541.54z M272.96,393.51
	c3.78,2.25,6.26,6,11.99,6.26c-4.31-7.72-7.61-16.39-7.88-28.15c-9.64-1.62-17.35-5-25.26-8.34c-0.73,12.28-3.51,22.45-7.45,31.46
	c6.82,0,10.76-4.83,14.5-6.52c-4.31,15.7-13.05,32.71-21.55,46.75c-2.15,3.57-6.03,11.92-9.87,13.27
	c-7.45,2.52-15.36-6.78-23.64-1.22c-0.66,0.73,0,3.01-0.86,3.64c-6.85-2.65-15.66,3.87-9.5,9.21c2.85-2.88,6.99-6.52,12.81-5.03
	c-4.7,1.42-9.24,11.03-0.4,11.23c0.66-1.33,0.76-3.11,1.62-4.14c11.66-5.63,36.69-5.63,49.7-1.23c1.32,0.46,0.66,2.91,2.08,3.28
	c3.18-1.39,5.63-5.26,4.61-8.68c-2.15-7.28-16.82-2.45-22.42-5.43c0.76-5.1,4.7-8.61,7.45-12.38
	C258.39,424.4,270.25,412.65,272.96,393.51L272.96,393.51z M309.45,320.2c-0.46,0-0.86,0-1.33,0c0.1,0.56,0,1.23,0.46,1.29
	c10.89,9.74,25.99,18.84,36.42,32.28c12.98,16.82,23.58,41.39,15.33,67.15c4.6-3.97,7.95-10.27,10.4-16.19
	c2.52-6.29,4.5-14.04,4.5-22.38C375.54,341,338.72,331.86,309.45,320.2L309.45,320.2z M363.25,294.64c0-0.8-0.36-1.13-0.86-1.29
	c-9.01,5.1-18.61,9.5-31.06,11.09c4.47,1.69,16.89,4.11,22.81,1.69C358.85,304.31,360.08,297.32,363.25,294.64L363.25,294.64z
	 M333.42,287.56c0.57,8.77-5.46,10.89-9.96,14.5c13.21-0.76,24.3-5.63,33.14-11.22c8.78-5.46,18.08-11.99,21.92-22.35
	c-0.27,0-0.56,0-0.83,0C365.27,277.16,351.5,284.54,333.42,287.56L333.42,287.56z M339.65,269.71c0.3,2.81-0.07,5.76-1.19,8.31
	c-1.32,2.55-4.93,3.87-3.81,5.76c12.61-3.05,23.71-8.58,33.18-15.3c8.94-6.49,18.61-14.47,21.52-26.92c-0.3,0-0.56,0-0.86,0
	C374.68,253.45,358.75,263.12,339.65,269.71L339.65,269.71z M342.1,252.69c2.09,5.73-1.95,10.63-2.45,13.71
	c19.87-8.34,38.24-20.46,51.29-36.02c4.27-4.97,10.3-11.19,8.81-19.04C383.12,227.86,364.68,242.23,342.1,252.69L342.1,252.69z
	 M313.59,229.15c-3.58,3.11-8.18,5.83-9.64,10.73c4.63-0.56,7.95-4.6,11.69-7.42c20.07-15.03,39.07-27.22,54.23-47.32
	c7.62-10.07,20.23-28.61,8.28-40.93c-0.27,0-0.56,0-0.86,0c0,0.4,0,0.86,0,1.22c0.3,13.48-5.89,24.11-12.38,33.51
	C350.74,199.52,331.24,213.36,313.59,229.15L313.59,229.15z M241.91,194.81c0.83-2.15,0.93-5.1,1.59-7.55c3.68,0,7.38-0.1,9.54,1.32
	C252.97,194.25,246.28,193.29,241.91,194.81L241.91,194.81z M231.94,296.2c-1.69-19.73,8.18-35.59,20.36-45.1
	c0.46-0.1,0.66,0.1,0.73,0.36c-5.53,11.19-12.15,20.93-11.12,38.14c0.93,18.48,10.29,33.11,21.09,42.65c3.68,3.21,8.64,5,11.19,9.14
	C253.5,335,234.09,320.93,231.94,296.2L231.94,296.2z M259.72,183.59c0-1.12,0-2.25,0-3.28c4.9,0.23,9.2,1.23,13.24,2.45
	C269.39,183.92,262.73,186.73,259.72,183.59L259.72,183.59z"/>
</svg>
