<?xml version="1.0" encoding="UTF-8" standalone="no"?>
<!-- Created with Inkscape (http://www.inkscape.org/) -->

<svg
   xmlns:dc="http://purl.org/dc/elements/1.1/"
   xmlns:cc="http://creativecommons.org/ns#"
   xmlns:rdf="http://www.w3.org/1999/02/22-rdf-syntax-ns#"
   xmlns:svg="http://www.w3.org/2000/svg"
   xmlns="http://www.w3.org/2000/svg"
   version="1.1"
   width="551.00763"
   height="540.6524"
   id="svg2">
  <title
     id="title3420">Funny Dog</title>
  <defs
     id="defs4" />
  <metadata
     id="metadata7">
    <rdf:RDF>
      <cc:Work
         rdf:about="">
        <dc:format>image/svg+xml</dc:format>
        <dc:type
           rdf:resource="http://purl.org/dc/dcmitype/StillImage" />
        <dc:title>Funny Dog</dc:title>
        <dc:date>2015</dc:date>
        <dc:creator>
          <cc:Agent>
            <dc:title>Doodleguy</dc:title>
          </cc:Agent>
        </dc:creator>
        <dc:rights>
          <cc:Agent>
            <dc:title>Public Domain</dc:title>
          </cc:Agent>
        </dc:rights>
        <cc:license
           rdf:resource="http://creativecommons.org/licenses/publicdomain/" />
      </cc:Work>
      <cc:License
         rdf:about="http://creativecommons.org/licenses/publicdomain/">
        <cc:permits
           rdf:resource="http://creativecommons.org/ns#Reproduction" />
        <cc:permits
           rdf:resource="http://creativecommons.org/ns#Distribution" />
        <cc:permits
           rdf:resource="http://creativecommons.org/ns#DerivativeWorks" />
      </cc:License>
    </rdf:RDF>
  </metadata>
  <g
     transform="translate(-95.052066,-57.147007)"
     id="layer1">
    <path
       d="m 498.27874,596.89415 c -2.32726,-0.7454 -2.34861,-0.8076 -0.30902,-0.9004 1.20504,-0.055 2.4691,0.3504 2.80902,0.9004 0.33992,0.55 0.47898,0.9551 0.30902,0.9003 -0.16996,-0.055 -1.43402,-0.46 -2.80902,-0.9003 z m -48,-0.393 c 0,-0.2162 0.69837,-0.661 1.55194,-0.9886 0.88992,-0.3415 1.29132,-0.1738 0.94098,0.393 -0.58726,0.9502 -2.49292,1.4055 -2.49292,0.5956 z m 7.13669,-0.9403 c -0.74982,-0.9046 -1.73122,-1.4173 -2.1809,-1.1394 -0.44968,0.2779 -1.10025,0.048 -1.44571,-0.511 -0.34546,-0.559 -1.69623,-1.0163 -3.00171,-1.0163 -3.15431,0 -4.04178,-3.0679 -2.01903,-6.9794 1.83048,-3.5398 1.32282,-5.0622 -1.50633,-4.5174 -2.28763,0.4406 -3.50532,-1.422 -4.8541,-7.425 -1.1051,-4.9185 0.0394,-10.0267 3.21396,-14.3443 2.33618,-3.1775 9.13562,-7.148 11.00935,-6.429 1.43707,0.5514 3.78111,-1.81 2.83767,-2.8587 -0.37944,-0.4218 -0.20762,-0.4928 0.38181,-0.1577 0.58944,0.335 2.19443,0.027 3.56665,-0.6853 2.75474,-1.4292 7.08676,-2.7149 10.73613,-3.1865 2.49343,-0.3222 7.12664,-4.4167 4.99781,-4.4167 -0.66309,0 -0.90953,-0.2961 -0.54763,-0.658 0.36189,-0.3619 0.27521,-1.1494 -0.19262,-1.75 -1.39578,-1.7919 -2.19645,-7.592 -1.04802,-7.592 0.56871,0 0.73537,0.4832 0.37035,1.0738 -0.36633,0.5927 0.25027,0.5031 1.3763,-0.2002 1.12198,-0.7006 1.78782,-1.6819 1.47965,-2.1805 -0.30818,-0.4987 -0.94718,-0.2961 -1.42001,0.4501 -0.68482,1.0808 -0.8628,1.0905 -0.875,0.048 -0.009,-0.7797 -0.52078,-1.0053 -1.26531,-0.558 -0.72852,0.4376 -0.62422,-0.035 0.25,-1.133 0.87422,-1.098 0.97852,-1.5706 0.25,-1.1329 -1.75705,1.0556 -1.56388,-0.4113 0.23134,-1.7568 1.1033,-0.8269 1.20683,-1.4931 0.40567,-2.6103 -0.89859,-1.253 -0.97972,-1.2033 -0.4928,0.302 0.35497,1.0973 0.18045,1.5532 -0.44634,1.1658 -0.56607,-0.3498 -0.74874,-1.5198 -0.40593,-2.5999 0.34281,-1.0801 0.0236,-2.7036 -0.70932,-3.6078 -0.95464,-1.1777 -0.97807,-1.431 -0.0826,-0.893 0.6875,0.413 1.25,0.2744 1.25,-0.3081 -2e-5,-0.5824 -0.53603,-1.0589 -1.19115,-1.0589 -0.65512,0 -0.31762,-0.6761 0.75,-1.5025 1.61812,-1.2524 1.64993,-1.401 0.19113,-0.893 -1.1935,0.4156 -1.75,0.098 -1.75,-0.9975 0,-0.8839 0.5625,-1.6139 1.25,-1.6223 0.91977,-0.011 0.89157,-0.2425 -0.10676,-0.875 -1.0077,-0.6386 -1.05448,-1.0466 -0.18183,-1.5859 0.64622,-0.3994 0.93795,-1.3437 0.6483,-2.0985 -0.28966,-0.7549 0.24217,-1.8207 1.18182,-2.3685 2.15117,-1.2541 0.68025,-1.3797 -1.63666,-0.1397 -1.42393,0.762 -1.69432,0.4755 -1.59931,-1.695 0.0629,-1.4367 0.64142,-2.7878 1.28562,-3.0025 0.64421,-0.2148 0.90341,-0.8239 0.57602,-1.3536 -0.35945,-0.5816 -1.21906,-0.4487 -2.16995,0.3354 -1.3874,1.1441 -1.44185,1.0492 -0.45777,-0.7982 0.82895,-1.5562 0.81959,-2.3942 -0.0363,-3.25 -0.87093,-0.871 -0.6759,-1.157 0.7968,-1.1685 1.0725,-0.01 2.625,-0.4578 3.45,-0.9987 1.07481,-0.7045 0.50789,-0.8365 -2,-0.4655 -2.69511,0.3986 -3.04006,0.2995 -1.5,-0.4311 1.92433,-0.913 1.9272,-0.9515 0.0757,-1.0191 -1.78473,-0.065 -1.74846,-0.2676 0.5,-2.7901 1.33337,-1.4958 1.62594,-2.1067 0.65014,-1.3575 -2.33213,1.7907 -2.50964,1.5048 -3.06701,-4.9395 -0.26083,-3.0158 -0.5502,-5.4832 -0.64304,-5.4832 -0.0928,0 -0.32945,-0.855 -0.52581,-1.8999 -0.19635,-1.045 -0.94942,-2.2756 -1.67349,-2.7347 -1.00465,-0.6371 -0.91594,-0.8384 0.3745,-0.8501 0.93004,-0.01 2.01207,-0.5349 2.40451,-1.1698 0.42799,-0.6925 0.27574,-0.884 -0.38046,-0.4784 -0.6335,0.3915 -1.09988,-0.07 -1.10798,-1.0955 -0.008,-0.9744 -0.25114,-3.2341 -0.54099,-5.0216 -0.34332,-2.1173 -0.11864,-3.25 0.6446,-3.25 0.64438,0 0.34184,-0.6068 -0.67231,-1.3483 -1.01414,-0.7416 -1.54735,-1.8282 -1.18489,-2.4146 0.36245,-0.5865 0.0937,-1.2955 -0.59723,-1.5756 -0.95041,-0.3853 -0.89106,-0.7675 0.24377,-1.5701 1.33333,-0.9429 1.33333,-1.0757 0,-1.1945 -0.825,-0.074 -1.93737,-0.047 -2.47194,0.059 -0.53456,0.1058 -0.0846,-0.8183 1,-2.0535 1.08457,-1.2353 1.45659,-1.9461 0.82672,-1.5797 -1.59961,0.9304 -2.71535,-2.4767 -1.13865,-3.4771 0.93515,-0.5934 0.79252,-0.8188 -0.52515,-0.83 -0.99496,-0.01 -1.54305,-0.4457 -1.21797,-0.9716 0.32507,-0.526 1.36413,-0.7086 2.30902,-0.4057 1.41011,0.452 1.45773,0.3664 0.26572,-0.4777 -0.79874,-0.5656 -1.87649,-0.7662 -2.39499,-0.4457 -0.53907,0.3332 -0.73341,-0.5124 -0.45387,-1.9747 0.35538,-1.859 0.12192,-2.4165 -0.85501,-2.0416 -0.83565,0.3206 -1.34388,-0.2055 -1.34388,-1.3913 0,-1.0489 -0.5625,-2.5198 -1.25,-3.2688 -0.6875,-0.7491 0.2151,-0.3566 2.00578,0.8722 1.79068,1.2287 4.04068,2.0287 5,1.7778 1.33977,-0.3504 1.23618,-0.4831 -0.44676,-0.5722 -1.20504,-0.064 -2.4989,-0.6142 -2.87523,-1.2231 -0.46045,-0.7451 0.0108,-0.8866 1.44098,-0.4327 1.16888,0.371 2.12523,0.29 2.12523,-0.18 0,-0.47 -0.7875,-0.9162 -1.75,-0.9914 -3.06412,-0.2396 -7.3905,-2.2525 -6.82118,-3.1736 0.30204,-0.4887 -0.14219,-1.4624 -0.98716,-2.1636 -1.22829,-1.0194 -1.27621,-1.4401 -0.23899,-2.098 0.94048,-0.5966 0.77012,-0.8272 -0.61934,-0.8383 -1.05416,-0.01 -1.62057,-0.3114 -1.25867,-0.6733 0.36189,-0.3619 0.14824,-1.2722 -0.47478,-2.0229 -0.90648,-1.0922 -0.75492,-1.2394 0.75868,-0.7365 1.04029,0.3456 0.55237,-0.3047 -1.08427,-1.4452 -3.36728,-2.3464 -4.79434,-5.2611 -3.1378,-6.4089 0.61243,-0.4244 -0.11667,-0.568 -1.62022,-0.3192 -1.50356,0.2488 -2.9995,0.022 -3.32433,-0.5033 -0.32483,-0.5255 -0.0509,-0.8319 0.60873,-0.6808 0.65963,0.1511 1.39895,-0.2678 1.64293,-0.931 0.28108,-0.764 -0.31427,-1.0598 -1.625,-0.8074 -2.5241,0.4861 -2.70941,-0.9754 -0.3186,-2.5126 1.66667,-1.0716 1.66667,-1.0993 0,-0.5811 -2.18764,0.6802 -4.92572,-0.2998 -4.18524,-1.4979 0.30431,-0.4924 0.0502,-0.8952 -0.56475,-0.8952 -0.61492,0 -0.87154,-0.3989 -0.57026,-0.8863 0.30127,-0.4875 -0.39245,-1.1322 -1.5416,-1.4327 -1.14932,-0.3006 -1.79259,-1.0266 -1.42974,-1.6137 0.59576,-0.964 -0.86665,-1.4418 -4.12932,-1.3492 -0.64401,0.018 -0.95728,-0.5235 -0.69617,-1.2039 0.63757,-1.6615 -9.53792,-1.4029 -15.63291,0.3972 -4.15849,1.2282 -15.38237,6.1323 -22.5,9.8312 -3.702,1.9238 -5.50421,2.8146 -17.73342,8.7655 -5.59728,2.7238 -9.46234,5.1751 -9.0955,5.7687 0.35087,0.5677 0.16463,0.7397 -0.41385,0.3821 -0.57848,-0.3575 -4.10716,0.7798 -7.84152,2.5273 -3.73435,1.7475 -7.71808,3.2566 -8.85272,3.3535 -4.9512,0.4228 -15.39247,1.7348 -19.11327,2.4016 -2.22766,0.3992 -7.40266,0.8315 -11.5,0.9606 -4.09735,0.1291 -7.56932,0.5628 -7.71551,0.9638 -0.14618,0.4009 -1.72118,0.5916 -3.5,0.4236 -1.77881,-0.1679 -5.93421,0.2608 -9.23421,0.9527 l -6,1.258 -0.0947,4.5941 c -0.0521,2.5268 -0.33129,5.0018 -0.62049,5.5 -0.2892,0.4982 -0.39891,1.6934 -0.24382,2.6559 0.1551,0.9625 -0.21419,1.75 -0.82064,1.75 -0.60646,0 -0.22914,0.6664 0.83848,1.481 1.6777,1.28 1.73757,1.6142 0.44113,2.4631 -1.89591,1.2414 -2.28068,11.0559 -0.4334,11.0559 1.20154,0 2.90176,2.7875 2.5922,4.25 -0.0873,0.4125 0.30707,0.75 0.87642,0.75 0.70103,0 0.71239,0.6031 0.0352,1.8685 -0.55,1.0277 -0.72671,2.1418 -0.39269,2.4758 0.33403,0.334 0.0506,1.2781 -0.62972,2.0979 -0.68037,0.8198 -1.00502,2.0682 -0.72145,2.7741 0.29585,0.7366 0.54924,0.4526 0.59454,-0.6663 0.058,-1.4319 0.37466,-1.6543 1.19182,-0.8372 1.48246,1.4825 0.25768,3.2872 -2.2309,3.2872 -1.13081,0 -1.72048,0.4522 -1.35683,1.0406 0.35375,0.5724 1.6178,0.7741 2.80902,0.4483 2.03761,-0.5574 2.05909,-0.5066 0.36284,0.8583 -1.18103,0.9503 -1.39547,1.5866 -0.62164,1.8446 1.81824,0.606 2.04416,11.5483 0.25263,12.2358 -0.78753,0.3022 -1.16012,0.1098 -0.82799,-0.4276 0.33858,-0.5479 -0.0583,-0.723 -0.90351,-0.3987 -1.18604,0.4551 -1.25041,0.8577 -0.30194,1.8883 0.86601,0.941 1.57128,1.0105 2.50461,0.2468 1.0215,-0.8357 1.19657,-0.4972 0.81917,1.5841 -0.26399,1.4558 -0.12202,2.8682 0.31549,3.1386 0.43751,0.2704 0.73666,1.5152 0.66478,2.7662 -0.10826,1.8844 -0.64267,2.2358 -3.11464,2.0483 -2.8525,-0.2163 -2.87915,-0.1826 -0.60505,0.7655 1.67318,0.6976 2.80183,0.6408 3.80452,-0.1914 1.1303,-0.938 1.86234,-0.7464 3.53383,0.9251 1.15952,1.1595 2.16968,2.9425 2.2448,3.9621 0.0751,1.0197 0.90188,2.9466 1.83726,4.282 0.93537,1.3354 1.69379,3.1154 1.68537,3.9556 -0.0122,1.2181 -0.18653,1.2574 -0.86084,0.1936 -0.6767,-1.0675 -0.97085,-1.0072 -1.47323,0.302 -0.36929,0.9623 -0.21784,1.3824 0.3679,1.0204 0.54758,-0.3384 1.26458,0.086 1.59333,0.9423 0.32874,0.8567 1.00057,1.3087 1.49293,1.0044 0.81203,-0.5019 1.37049,1.7587 0.97275,3.9374 -0.0876,0.48 0.48315,0.6262 1.26839,0.3249 1.01739,-0.3904 1.28315,0 0.92473,1.3755 -0.27664,1.0579 0.22856,3.0399 1.12267,4.4045 0.89411,1.3646 1.71954,3.6154 1.83428,5.0018 0.11474,1.3863 0.54634,2.5207 0.95912,2.5207 0.41278,0 0.46316,0.7488 0.11196,1.664 -0.42936,1.1189 -0.25527,1.4272 0.53138,0.941 1.03972,-0.6426 1.67953,1.1675 1.28836,3.645 -0.0651,0.4125 0.45425,0.75 1.15418,0.75 1.2757,0 5.01277,5.9333 4.50024,7.145 -0.15006,0.3547 0.62716,1.6685 1.72716,2.9195 1.79715,2.0439 1.81723,2.2078 0.19806,1.6165 -1.01464,-0.3706 -1.55083,-0.2518 -1.22721,0.2718 1.17638,1.9034 -5.02193,0.469 -6.27791,-1.4528 -1.22123,-1.8687 -1.27042,-1.8242 -0.7491,0.6776 0.35904,1.7231 -0.003,3.2383 -1.01437,4.25 -0.86478,0.8648 -1.11254,1.5724 -0.55059,1.5724 0.56196,0 1.38571,-0.6504 1.83056,-1.4453 1.00223,-1.7909 8.85846,-2.3868 10.45242,-0.7929 1.70457,1.7046 -0.67603,4.1539 -3.44863,3.5482 -1.47823,-0.323 -1.79814,-0.1861 -0.9633,0.4122 0.99795,0.7151 0.99243,1.2478 -0.0274,2.6425 -0.70253,0.9608 -1.93999,1.8519 -2.74993,1.9802 -0.80993,0.1283 -2.5976,0.9706 -3.9726,1.8717 -1.375,0.9011 -3.72339,2.1868 -5.21864,2.8571 -1.49526,0.6703 -2.4812,1.6029 -2.19099,2.0725 0.29022,0.4696 0.008,0.8538 -0.62698,0.8538 -0.63506,0 -2.518,0.9708 -4.18432,2.1573 -1.8333,1.3054 -4.37855,2.1066 -6.44553,2.0289 -1.87871,-0.071 -3.17728,0.2576 -2.8857,0.7294 0.75965,1.2291 -1.1521,2.4401 -7.69784,4.8763 -4.01621,1.4947 -5.75462,1.7733 -5.76531,0.924 -0.01,-0.7595 -0.29109,-0.8406 -0.75,-0.2159 -0.40408,0.55 -4.55969,1.0629 -9.23469,1.1399 -6.34371,0.1044 -8.42227,0.4645 -8.19358,1.4193 0.24789,1.0349 0.0143,1.0368 -1.22295,0.01 -2.02593,-1.6814 -8.61544,-1.6265 -9.69734,0.081 -0.68472,1.0805 -0.85856,1.0887 -0.87082,0.041 -0.008,-0.72 -0.43422,-1.0501 -0.94621,-0.7337 -0.512,0.3164 -1.22706,0.096 -1.58903,-0.4896 -0.4526,-0.7323 -1.04519,-0.7436 -1.89758,-0.036 -0.6817,0.5658 -2.10414,1.1632 -3.16097,1.3275 -1.05684,0.1644 -2.4618,0.6362 -3.12214,1.0484 -1.43562,0.8963 -32.29375,0.4722 -32.29707,-0.4439 -0.002,-0.5952 -2.41586,-1.2045 -9.40456,-2.3742 -3.17446,-0.5312 -9.94018,-4.4452 -7.73117,-4.4724 0.91958,-0.011 1.20876,-0.8424 0.88411,-2.5408 -0.26536,-1.3881 -0.0855,-2.7692 0.39973,-3.0691 0.48521,-0.2998 0.62331,-0.9641 0.30687,-1.4761 -0.31643,-0.512 -0.21816,-1.4934 0.21838,-2.1809 0.43654,-0.6875 0.83271,-1.475 0.88038,-1.75 0.67549,-3.8969 7.55691,-11.7521 14.08232,-16.0753 1.30776,-0.8664 2.14912,-1.8789 1.86969,-2.25 -0.27943,-0.3711 -0.24919,-0.4908 0.0672,-0.2661 0.3164,0.2247 2.0039,-0.026 3.75,-0.558 1.7461,-0.5316 4.2682,-1.189 5.60466,-1.4608 1.33646,-0.2718 2.89558,-0.782 3.46472,-1.1337 1.36796,-0.8454 17.69711,-0.3654 23.32323,0.6857 3.07836,0.5751 4.55523,0.4813 4.83264,-0.3068 1.7302,-4.9156 2.23222,-28.646 1.03945,-49.135 -0.38422,-6.6 -0.87641,-18.075 -1.09376,-25.5 -0.54299,-18.5491 -1.37628,-30.4027 -2.63619,-37.5 -0.58582,-3.3 -1.26117,-7.125 -1.50079,-8.5 -0.56178,-3.2237 -0.92419,-4.9249 -1.70425,-8 -0.34879,-1.375 -0.84525,-3.625 -1.10325,-5 -0.25799,-1.375 -1.21085,-5.425 -2.11745,-9 -0.90661,-3.575 -1.78461,-7.5037 -1.95111,-8.7303 -0.3916,-2.885 -3.26007,-10.9973 -5.1349,-14.5219 -0.80518,-1.5137 -1.65239,-3.7307 -1.88269,-4.9265 -0.2303,-1.19593 -0.76677,-2.43243 -1.19215,-2.74783 -0.42539,-0.3154 -0.92726,-1.4551 -1.11527,-2.5325 -0.18801,-1.0775 -1.19438,-3.0429 -2.23637,-4.3676 -1.042,-1.3246 -1.69074,-2.7382 -1.44166,-3.1412 0.24909,-0.40307 -2.2171,-3.83768 -5.48042,-7.63251 -3.26331,-3.79482 -5.94824,-7.2554 -5.9665,-7.69017 -0.0299,-0.71093 -3.7901,-6.46876 -5.0348,-7.70951 -0.27588,-0.275 -1.08518,-1.63615 -1.79845,-3.02478 -0.71327,-1.38863 -2.85005,-4.17109 -4.7484,-6.18324 -1.89836,-2.0122 -3.45156,-4.11199 -3.45156,-4.66625 0,-1.48964 -1.86831,-2.38697 -5.89336,-2.83053 -1.97058,-0.21715 -3.94808,-1.04742 -4.39444,-1.84503 -0.44637,-0.79762 -1.40996,-1.45021 -2.14131,-1.45021 -2.17008,0 -10.22505,-8.53564 -13.39094,-14.19002 -7.53011,-13.44904 -8.17767,-14.9613 -8.69718,-20.31077 -0.49548,-5.10203 -0.34719,-5.72191 1.48335,-6.2006 2.06813,-0.54083 2.85874,-2.29861 1.03388,-2.29861 -0.55,0 -1,-0.53634 -1,-1.19187 0,-0.65552 -1.6875,-2.81942 -3.75,-4.80865 -2.0625,-1.98924 -5.55,-6.00304 -7.75,-8.91957 -2.2,-2.91653 -5.65821,-7.34643 -7.68491,-9.84424 -3.53414,-4.35566 -6.81509,-12.04717 -6.81509,-15.97658 0,-1.46781 -0.79884,-1.89002 -3.75,-1.98198 -5.40982,-0.16858 -9.32847,-0.86153 -12.75,-2.25463 -1.65,-0.67181 -4.06054,-1.23294 -5.35676,-1.24697 -1.70498,-0.0185 -1.98154,-0.26326 -1,-0.8852 0.74622,-0.47283 1.13176,-0.90101 0.85676,-0.95151 -0.275,-0.0505 -1.4,-0.30876 -2.5,-0.57391 -1.1,-0.26515 -2.5375,-0.53072 -3.19444,-0.59016 -0.65695,-0.0594 -1.10695,-0.42886 -1,-0.82095 0.10694,-0.39209 -1.04306,-1.8706 -2.55556,-3.28559 -1.5125,-1.41498 -2.75,-2.88207 -2.75,-3.2602 0,-0.37813 -0.7875,-1.26343 -1.75,-1.96734 -1.26907,-0.92812 -1.75,-2.67598 -1.75,-6.36011 0,-2.79416 0.28502,-5.08034 0.63337,-5.08041 0.34835,-7e-5 0.8598,-0.78763 1.13654,-1.75013 0.27675,-0.9625 0.80947,-2.49083 1.18383,-3.39629 0.51816,-1.25328 -0.44429,-2.20811 -4.03165,-3.99972 -7.597385,-3.79432 -10.908905,-10.85381 -10.632875,-22.66714 0.0508,-2.17293 1.55227,-5.46766 4.3629,-9.57349 3.913995,-5.71766 4.724135,-6.36231 9.345965,-7.43684 11.83016,-2.75041 19.9274,0.18605 26.97065,9.78089 3.45002,4.69987 5.98313,6.6259 8.03127,6.10652 3.30029,-0.83692 4.52189,-0.83752 5.03798,-0.002 0.86538,1.40021 3.17339,1.13307 3.7759,-0.43705 0.29032,-0.75657 -0.0111,-2.44407 -0.66989,-3.75 -0.65877,-1.30593 -1.12941,-2.93692 -1.04587,-3.62442 0.0835,-0.6875 0.20813,-1.7 0.27688,-2.25 0.0687,-0.55 0.8145,-1 1.65722,-1 2.1011,0 3.55202,-4.10029 2.10261,-5.94196 -0.84888,-1.07862 -0.84627,-1.26905 0.0104,-0.75574 0.62987,0.37742 1.40325,0.0138 1.71862,-0.80804 0.36689,-0.95611 -0.0455,-1.52269 -1.14522,-1.57321 -1.02852,-0.0472 -1.22027,-0.28028 -0.47754,-0.58035 0.93532,-0.37789 0.86522,-0.87726 -0.28452,-2.027 -1.07286,-1.07287 -1.22117,-1.8924 -0.49975,-2.76166 0.56421,-0.67983 0.71672,-1.54518 0.33891,-1.92299 -0.73183,-0.73183 -1.10317,-2.4528 -1.48432,-6.87905 -0.13025,-1.5125 -0.61938,-2.75 -1.08696,-2.75 -0.46758,0 -0.75271,-0.7875 -0.63361,-1.75 0.1191,-0.9625 -0.0583,-2.425 -0.39414,-3.25 -0.33588,-0.825 -0.74254,-2.85 -0.90369,-4.5 -0.20054,-2.05384 -0.76631,-2.89904 -1.79299,-2.67903 -1.15451,0.24739 -1.22891,0.0454 -0.32303,-0.87698 0.84002,-0.85531 0.88863,-1.94935 0.16979,-3.82142 -0.97359,-2.53556 -0.55924,-11.10276 0.69506,-14.37143 0.33705,-0.87833 1.28154,-1.85358 2.09888,-2.16722 0.81733,-0.31364 1.22825,-0.9874 0.91315,-1.49724 -0.3151,-0.50985 0.55638,-1.81529 1.93662,-2.90098 2.55088,-2.00653 3.65315,-5.99126 1.25953,-4.55322 -0.92091,0.55326 -0.98673,0.37134 -0.25,-0.69098 0.97997,-1.41309 1.01344,-4.251752 0.17197,-14.588612 -0.35679,-4.38293 -0.0623,-5.5313 1.98462,-7.73881 l 2.40359,-2.59216 -1.957,-4.29588 c -1.07635,-2.36274 -2.27694,-5.63027 -2.66798,-7.26119 -0.39104,-1.63092 -1.17439,-3.55235 -1.74079,-4.26983 -0.74592,-0.94491 -0.45798,-1.87636 1.04448,-3.37882 2.51819,-2.51819 7.96096,-1.91079 10.7788,1.2029 1.07485,1.18769 3.0728,1.98044 4.99127,1.98044 2.01739,0 4.18514,0.91393 5.86882,2.47431 1.4684,1.36088 2.77161,2.39398 2.89602,2.29579 0.79528,-0.62769 6.74486,3.97544 7.61955,5.89517 0.58507,1.2841 1.74842,2.33473 2.58521,2.33473 1.3426,0 2.0413,1.87076 1.61508,4.32433 -0.0787,0.45338 0.22694,0.59557 0.67933,0.31598 1.29168,-0.7983 2.79344,0.56696 4.79558,4.35969 1.01619,1.925 1.88154,3.725 1.923,4 0.40424,2.68122 4.04726,10 4.97764,10 0.65861,0 1.19748,0.675 1.19748,1.5 0,0.825002 -0.32717,1.500002 -0.72704,1.500002 -0.39987,0 -0.2994,1.90329 0.22328,4.22953 0.52267,2.32624 0.74175,5.02705 0.48685,6.0018 -0.53234,2.03568 6.66642,8.76867 9.37525,8.76867 1.91544,0 5.29492,3.34673 4.34187,4.29979 -0.35062,0.35062 0.29438,0.45803 1.43333,0.23869 1.13895,-0.21935 2.66234,0.33115 3.3853,1.22331 0.94182,1.16223 0.96335,1.41122 0.0759,0.87823 -0.84448,-0.50722 -1.0469,-0.24449 -0.63621,0.82575 0.33128,0.8633 1.19716,1.44918 1.92417,1.30194 1.71813,-0.34797 8.14875,6.6378 7.60684,8.26353 -0.2414,0.72421 0.058,0.95439 0.71402,0.54894 0.67078,-0.41457 1.17784,0.0367 1.24815,1.1108 0.1224,1.86973 0.0437,2.42866 -0.81779,5.80902 -0.28034,1.1 -0.5502,2.9 -0.59968,4 -0.0495,1.1 -0.91227,2.5949 -1.91731,3.32201 -1.75692,1.27106 -1.74842,1.38668 0.22066,3 l 2.04802,1.67799 -2.61506,3.82777 c -1.43828,2.10527 -2.36531,4.07751 -2.06007,4.38275 0.30524,0.30525 -0.49223,1.37873 -1.77217,2.38553 -2.84177,2.23534 -6.89064,11.18951 -7.12059,15.74736 -0.0928,1.83888 -0.80222,3.74448 -1.57655,4.23469 -0.77434,0.4902 -1.06001,0.89817 -0.63483,0.90659 0.42518,0.008 0.0863,1.06335 -0.75295,2.34429 -0.8393,1.28094 -1.51429,3.41844 -1.49998,4.75 0.0247,2.29685 -2.58277,17.42102 -3.00345,17.42102 -0.10934,0 -0.27707,2.25 -0.37274,5 -0.0957,2.75 -0.45522,5.45 -0.79902,6 -0.34379,0.55 -0.29882,3.11815 0.1,5.707 0.39876,2.58886 0.3493,4.4748 -0.10992,4.19099 -0.45922,-0.28381 -0.83494,0.63553 -0.83494,2.04299 0,1.40746 0.5625,2.56591 1.25,2.57433 0.93937,0.0115 0.91971,0.2247 -0.0791,0.8579 -0.90452,0.57342 -1.24582,2.64012 -1.06842,6.46977 0.14336,3.09496 -0.0461,5.9339 -0.42092,6.30877 -0.9749,0.97491 -0.8451,3.56735 0.14788,2.95365 0.98294,-0.60749 0.85423,3.04425 -0.14242,4.0409 -1.2695,1.26949 -0.70331,2.1328 1.81296,2.76434 3.23606,0.8122 3.19241,2.19876 -0.0952,3.0239 -2.39591,0.60133 -2.5614,0.98993 -2.15517,5.06057 0.27,2.70547 1.466,5.75434 3.0952,7.89033 1.46034,1.91462 2.65517,4.1164 2.65517,4.89285 0,1.75885 3.42301,4.96537 4.33115,4.05723 0.36787,-0.36787 0.66885,-0.14862 0.66885,0.48723 0,0.63584 2.29633,3.69176 5.10295,6.79093 5.31103,5.86462 8.1478,11.11727 8.30964,15.38632 0.12967,3.42068 4.19345,10.26168 6.8824,11.58588 1.21275,0.59723 4.12224,2.10763 6.46551,3.35644 2.34328,1.24881 5.34308,2.33516 6.66624,2.41412 1.32315,0.079 2.33093,0.36856 2.2395,0.64356 -0.0914,0.275 0.12402,0.5 0.47877,0.5 0.35476,0 1.64077,0.9 2.85781,2 1.21703,1.1 3.06428,1.85921 4.10499,1.68714 1.0407,-0.17207 1.89219,0.19199 1.89219,0.80902 0,0.61703 0.4317,0.85507 0.95932,0.52898 1.01192,-0.6254 5.02958,1.27919 6.27537,2.97486 0.40408,0.55 0.74158,0.70323 0.75,0.34051 0.008,-0.36272 2.15281,-0.0992 4.76531,0.5855 2.6125,0.68473 6.2125,1.17318 8,1.08543 1.7875,-0.0878 3.25,0.25942 3.25,0.77149 0,0.51208 -0.69837,0.66306 -1.55194,0.33551 -0.94447,-0.36243 -1.2963,-0.18191 -0.89885,0.46119 0.3592,0.58119 1.39507,0.74248 2.30194,0.35841 0.90687,-0.38406 3.07728,-0.62794 4.82314,-0.54194 2.48444,0.12237 3.34246,-0.33832 3.94812,-2.11987 0.42561,-1.25193 0.67353,-2.64718 0.55094,-3.10056 -0.1226,-0.45338 0.2815,-0.51259 0.89799,-0.13158 0.61649,0.38102 0.93058,1.98946 0.69797,3.57433 -0.34649,2.36079 -0.0476,2.9028 1.65388,2.99902 1.14225,0.0646 3.87681,0.32342 6.07681,0.57518 5.73189,0.65593 12.39225,0.54294 16.90548,-0.28678 2.2741,-0.41807 3.67156,-0.33951 3.34549,0.18809 -0.30799,0.49834 1.19704,0.90607 3.34452,0.90607 2.14748,0 3.90451,-0.4275 3.90451,-0.95 0,-0.5225 0.54,-0.41 1.2,0.25 1.57983,1.57983 3.12481,1.54418 2.16706,-0.05 -0.57109,-0.95058 -0.40557,-0.98517 0.69098,-0.14443 1.80916,1.3871 5.94196,2.4409 5.94196,1.5151 0,-0.38066 0.7875,-0.73802 1.75,-0.79415 5.21905,-0.30434 7.36629,-0.35769 13.75,-0.34164 9.79686,0.0246 10.58953,-0.04 14.2887,-1.16519 2.3887,-0.72658 3.68861,-0.66845 4.75,0.21243 1.14697,0.9519 1.4613,0.94831 1.4613,-0.0167 0,-0.68199 0.66793,-0.97313 1.5,-0.65383 0.825,0.31658 1.5,0.13972 1.5,-0.39301 0,-0.53274 0.3375,-0.89288 0.75,-0.8003 1.38955,0.31184 8.25,-1.38473 8.25,-2.04021 0,-0.35711 1.40484,-0.70671 3.12187,-0.77688 1.71703,-0.0702 3.45485,-0.66634 3.86181,-1.32482 0.40696,-0.65848 0.91462,-1.0843 1.12812,-0.94627 0.7397,0.4782 22.57373,-9.68127 24.8882,-11.58058 0.825,-0.67702 2.85,-1.55146 4.5,-1.9432 1.65,-0.39174 4.575,-1.68689 6.5,-2.8781 1.925,-1.19121 3.8375,-2.05614 4.25,-1.92205 0.4125,0.13408 0.75,-0.1387 0.75,-0.60619 0,-0.46749 2.92125,-2.09153 6.49167,-3.60898 3.57041,-1.51745 6.24385,-3.15995 5.94098,-3.65002 -0.30288,-0.49006 0.0384,-0.94293 0.75833,-1.00637 3.80234,-0.33506 7.84887,-2.01116 7.23876,-2.99834 -0.44316,-0.71704 2.52541,-1.184 5.12298,-0.80585 0.304,0.0443 1.5415,-0.55211 2.75,-1.32526 2.3829,-1.52449 11.45421,-1.6424 18.21907,-0.23683 4.41163,0.91663 4.19027,0.85598 6.97821,1.91173 7.53694,2.85412 10.23642,2.85992 15.5,0.0333 1.925,-1.03376 3.79674,-1.89842 4.15943,-1.92147 0.36269,-0.0231 1.70561,-1.39192 2.98428,-3.04192 1.27867,-1.65 3.15762,-3.9 4.17543,-5 5.026,-5.43182 7.20298,-16.1468 6.37353,-31.37022 -0.31854,-5.84635 -0.79138,-11.75475 -1.05077,-13.12975 -0.25939,-1.375 -0.78073,-5.65 -1.15854,-9.5 -0.37781,-3.85 -1.27332,-8.8 -1.99002,-11 -2.11919,-6.50509 -4.86253,-15.88619 -5.11757,-17.5 -0.13038,-0.825 -0.67599,-3.975 -1.21245,-7 -0.53647,-3.025 -1.27988,-8.875 -1.65203,-13 -0.99657,-11.04636 -1.25586,-13.28879 -1.79219,-15.5 -0.89092,-3.67311 -2.09561,-12.98733 -1.81073,-14 1.56029,-5.54661 0.73983,-7.87708 -2.25832,-6.41457 -2.14797,1.04779 -2.14793,1.04705 0.0393,-0.76832 2.26343,-1.87857 4.56419,-8.20988 2.52557,-6.94995 -0.59221,0.366 -1.3594,0.20812 -1.70486,-0.35085 -0.34543,-0.55897 -0.12497,-1.01631 0.48995,-1.01631 0.61492,0 0.86367,-0.41157 0.55279,-0.91459 -0.31089,-0.50302 -0.0384,-1.09021 0.60553,-1.30485 0.68918,-0.22973 1.2478,-2.83581 1.35801,-6.33541 0.10297,-3.26983 0.45885,-6.62015 0.79082,-7.44515 1.51335,-3.7608 3.53406,-13.44791 2.98914,-14.32962 -0.33292,-0.53867 -0.11818,-0.67833 0.47721,-0.31037 0.87939,0.5435 2.21666,-1.60065 2.71926,-4.36001 0.0501,-0.275 0.8781,-1.97572 1.84002,-3.77937 0.96193,-1.80365 1.52967,-3.63418 1.26165,-4.06784 -0.26802,-0.43367 0.42388,-1.43295 1.53756,-2.220642 1.11368,-0.78768 3.5296,-3.45715 5.36872,-5.93215 4.54787,-6.12033 12.01274,-14 13.26301,-14 0.56227,0 1.28132,-0.675 1.59791,-1.5 0.31658,-0.825 1.48972,-1.5 2.60699,-1.5 1.11726,0 2.03138,-0.47656 2.03138,-1.05902 0,-0.58246 0.46971,-0.76872 1.0438,-0.41391 0.5741,0.35481 1.67939,0.11763 2.4562,-0.52707 0.77681,-0.6447 1.95163,-0.83891 2.6107,-0.43158 0.73442,0.45389 0.93657,0.31708 0.5222,-0.35339 -0.39641,-0.6414 0.0568,-1.06379 1.09549,-1.02099 0.97438,0.0401 2.63293,-0.28856 3.68565,-0.73046 1.35367,-0.56823 1.70236,-0.46093 1.19099,0.36648 -0.39769,0.64347 -0.29465,1.16994 0.22896,1.16994 0.52362,0 1.18599,-0.60968 1.47193,-1.35484 0.43342,-1.12946 1.99003,-1.14683 9.35699,-0.10441 10.26804,1.45292 12.34433,2.14213 14.19084,4.71057 0.74457,1.03567 1.97667,1.64399 2.73801,1.35184 0.76134,-0.29215 1.27715,-0.15804 1.14624,0.29803 -0.1309,0.45607 1.84486,3.10165 4.39058,5.87906 2.54571,2.77741 5.24306,6.43807 5.99411,8.13479 0.75104,1.69673 1.81818,3.09185 2.37142,3.10027 0.55324,0.008 0.33089,0.45153 -0.49411,0.98469 -1.33108,0.86021 -1.33002,0.9711 0.009,0.98469 0.8302,0.008 2.10092,0.9624 2.82383,2.11995 0.7229,1.157562 0.8874,1.840762 0.36554,1.518242 -0.52185,-0.32252 -0.94882,0.53039 -0.94882,1.89536 0,1.61791 0.56563,2.48709 1.625,2.49707 0.93477,0.009 1.20024,0.32738 0.625,0.75 -1.64618,1.20943 -1.14,3.60309 1.23374,5.83429 1.22855,1.15478 1.90355,2.46397 1.5,2.90933 -0.40356,0.44535 0.0173,0.54114 0.93527,0.21286 1.91845,-0.68607 6.16639,2.54155 5.0628,3.84676 -0.40249,0.47603 0.0156,0.296 0.92916,-0.40008 1.2198,-0.92943 1.8474,-0.96394 2.36286,-0.12991 0.38604,0.62462 1.52953,0.91924 2.54108,0.65472 1.01156,-0.26453 1.98461,-0.0447 2.16234,0.48848 0.17773,0.53319 2.56181,1.11531 5.29795,1.2936 2.73614,0.17829 6.24159,0.81927 7.7899,1.4244 1.5483,0.60513 3.26236,1.10024 3.80902,1.10024 0.54665,0 0.7158,0.45 0.37588,1 -0.33992,0.55 -0.0933,1 0.54797,1 0.6413,0 0.90699,0.675 0.5904,1.5 -0.34107,0.88881 -0.0107,1.5 0.81076,1.5 2.50518,0 1.23677,9.41196 -1.80605,13.4013 -3.73683,4.89924 -12.20557,8.59362 -18.36574,8.01183 -6.62755,-0.62594 -13.34735,-2.49084 -12.70724,-3.52655 0.29358,-0.47502 -0.11908,-0.61315 -0.91701,-0.30695 -0.79793,0.30619 -1.74786,0.076 -2.11096,-0.51146 -0.36309,-0.58749 -1.64611,-1.0701 -2.85115,-1.07245 -2.56238,-0.005 -11.01764,-5.33573 -10.0299,-6.32347 0.36974,-0.36974 0.0302,-0.67225 -0.75463,-0.67225 -1.9115,0 -6.13342,-4.01314 -8.85556,-8.41765 -1.21725,-1.97029 -2.62686,-3.58235 -3.132,-3.58235 -0.50514,0 -0.91844,-0.59656 -0.91844,-1.32569 0,-0.72912 -1.11113,-2.36954 -2.46918,-3.64536 -1.35805,-1.27582 -2.30715,-2.59176 -2.10911,-2.92431 0.19804,-0.33255 -1.3229,-2.11449 -3.37986,-3.95986 -4.88838,-4.38554 -11.7369,-4.97001 -16.9314,-1.44496 -1.86425,1.2651 -4.15236,2.30018 -5.0847,2.30018 -3.02514,0 -7.25371,5.8378 -7.33288,10.12351 -0.0394,2.13207 -0.3614,3.87649 -0.71558,3.87649 -0.35417,0 -0.69511,0.5625 -0.75762,1.25 -0.0625,0.6875 -0.3804,3.95 -0.7064,7.25 -0.56733,5.74291 -0.78649,7.15178 -1.90973,12.27671 -0.29259,1.33495 -0.0957,2.02748 0.47591,1.67418 0.60622,-0.37466 0.81959,1.50616 0.5642,4.97329 -0.27436,3.72468 -0.0344,5.5809 0.72282,5.59113 0.72412,0.01 0.77235,0.28067 0.13353,0.75 -0.55,0.40408 -1.13789,1.37336 -1.30642,2.15396 -0.25588,1.18515 -0.0444,1.20183 1.28185,0.10112 1.41068,-1.17076 1.48004,-1.03346 0.62027,1.22791 -0.53241,1.40033 -0.68372,2.83035 -0.33625,3.17782 0.34748,0.34747 0.74244,1.18124 0.8777,1.85282 0.94797,4.70671 1.42305,6.1437 2.19778,6.64757 0.48499,0.31542 0.76034,1.36099 0.61191,2.32349 -0.14843,0.9625 0.11992,1.75 0.59633,1.75 0.47641,0 1.17174,1.6875 1.54517,3.75 0.37342,2.0625 1.29216,4.96196 2.04164,6.44325 0.92829,1.8347 1.026,2.90133 0.30651,3.346 -0.66766,0.41263 -0.39042,1.1965 0.75367,2.13091 0.99541,0.81298 1.20066,1.16438 0.45611,0.78087 -0.98073,-0.50516 -0.91089,-0.0214 0.25351,1.75567 0.88398,1.34912 1.30566,2.75453 0.93706,3.12313 -0.36859,0.36859 0.11197,0.67017 1.06792,0.67017 1.58009,0 1.59524,0.14286 0.16667,1.57143 -1.74649,1.74649 -2.09776,2.87189 -0.60926,1.95195 0.5292,-0.32706 1.35339,0.88388 1.83155,2.69098 0.47815,1.8071 0.51939,3.42757 0.0916,3.60104 -0.42775,0.17346 0.0661,1.81786 1.09757,3.65421 1.03142,1.83635 1.62863,3.5855 1.32714,3.88699 -0.30149,0.30149 0.21366,1.30998 1.14477,2.2411 1.36312,1.36312 1.43502,1.85646 0.36905,2.5323 -1.05475,0.66873 -1.01894,0.8456 0.17611,0.87 1.20382,0.0246 1.23663,0.19758 0.16615,0.87615 -1.06616,0.67584 -1.00327,0.97237 0.31339,1.47762 1.01939,0.39118 1.34793,1.11123 0.86196,1.88917 -1.1162,1.78683 -1.32275,3.86351 -0.32281,3.24551 0.46371,-0.28659 1.10655,-0.0948 1.42852,0.42614 0.32198,0.52097 0.15495,1.21325 -0.37117,1.53842 -0.60258,0.37241 -0.56972,1.70097 0.0888,3.58998 0.79659,2.28511 0.72288,3.39649 -0.30972,4.66986 -1.1493,1.41727 -1.14136,1.54224 0.0522,0.82285 1.1621,-0.70041 1.29613,-0.0368 0.76913,3.80804 -0.38525,2.81074 -0.24944,4.65626 0.34266,4.65626 0.53948,0 0.98087,0.675 0.98087,1.5 0,0.825 -0.5625,1.50689 -1.25,1.51531 -0.83333,0.0102 -0.75,0.33844 0.25,0.98469 1.33333,0.86167 1.33333,0.97278 0,1 -1.22891,0.0251 -1.25364,0.18671 -0.13685,0.89426 1.15087,0.72914 1.15087,0.96035 0,1.48469 -1.09242,0.49771 -1.10661,0.73967 -0.0714,1.2183 0.99158,0.45846 1.02122,0.92319 0.12755,2 -0.6403,0.77151 -0.77158,1.40964 -0.29173,1.41806 0.47984,0.008 0.19744,0.45153 -0.62756,0.98469 -1,0.64625 -1.08333,0.97448 -0.25,0.98469 1.57914,0.0193 1.6484,2.71584 0.0831,3.23759 -0.64177,0.21393 -1.2781,1.93893 -1.41407,3.83334 -0.13597,1.89441 -0.32032,3.44438 -0.40966,3.44438 -0.0893,0 -0.32851,0.89183 -0.53148,1.98185 -0.20296,1.09001 -0.79576,2.12409 -1.31733,2.29795 -0.52156,0.17385 -0.72445,1.17208 -0.45086,2.21829 0.2788,1.06613 -0.51359,3.32206 -1.80282,5.13262 -1.26515,1.77673 -1.75835,2.8955 -1.09601,2.48615 0.89996,-0.55621 0.96714,-0.15963 0.26588,1.56943 -0.51611,1.27254 -1.27034,3.66371 -1.67606,5.31371 -0.99251,4.03638 -0.90075,3.71195 -1.77189,6.26452 -0.42506,1.24549 -1.23534,1.97868 -1.80061,1.62932 -0.56528,-0.34936 -0.47193,0.43161 0.20745,1.73548 0.67937,1.30388 0.87713,2.03604 0.43946,1.62704 -0.8662,-0.80946 -4.12759,3.22506 -3.69261,4.56797 0.14686,0.45338 -0.10841,0.59231 -0.56725,0.30873 -0.45884,-0.28358 -1.93249,0.87354 -3.27478,2.57139 -3.80644,4.81475 -9.08711,10.06394 -13.19051,13.11189 -2.0625,1.53199 -3.75,3.4641 -3.75,4.29357 0,0.88533 -0.47677,1.21347 -1.15451,0.7946 -0.79135,-0.48908 -0.87784,-0.27173 -0.27496,0.69098 0.48376,0.77248 0.74166,2.2412 0.57313,3.26382 -0.18428,1.11823 0.12004,1.59575 0.76351,1.19806 0.65204,-0.40298 0.84306,-0.07 0.48906,0.85246 -0.31947,0.83253 0.10497,2.88848 0.94321,4.56877 0.83824,1.6803 1.11797,2.8041 0.62163,2.49734 -1.0754,-0.66463 -1.98443,3.01626 -1.61116,6.52406 0.14631,1.375 -0.14791,3.05677 -0.65382,3.73727 -0.50591,0.68049 -0.6755,1.874 -0.37687,2.65223 0.29864,0.77823 0.23648,1.72146 -0.13812,2.09607 -0.37461,0.3746 -0.73735,1.5436 -0.8061,2.59776 -0.0688,1.05417 -0.21568,2.02917 -0.32651,2.16667 -0.29411,0.36487 -1.10584,3.88283 -1.5336,6.64653 -0.20402,1.318 -0.74083,2.668 -1.19292,3 -0.45208,0.3319 -0.97771,1.4933 -1.16805,2.581 -0.28494,1.6281 -4.10847,7.16933 -9.08481,13.16593 -0.52189,0.6289 -0.67594,1.4164 -0.34233,1.75 0.3336,0.3336 0.17798,0.6066 -0.34583,0.6066 -0.52381,0 -0.9728,0.7875 -0.99775,1.75 -0.068,2.6218 -1.33602,12.3347 -2.0562,15.75 -0.60916,2.8887 -0.56477,28.1982 0.0624,35.5982 0.16774,1.9791 0.66826,4.1861 1.11228,4.9045 0.53365,0.8635 0.41596,1.0644 -0.3472,0.5928 -1.5201,-0.9395 -1.48684,0.6721 0.0455,2.2045 0.66,0.66 0.7725,1.2069 0.25,1.2153 -0.5225,0.01 -0.275,0.4515 0.55,0.9847 0.8822,0.5701 1.01392,0.9756 0.31981,0.9847 -0.78869,0.01 -0.94894,0.9275 -0.48306,2.7653 0.38342,1.5125 0.67391,4.1791 0.64553,5.9259 -0.0284,1.7468 0.24223,2.9943 0.60137,2.7724 0.35914,-0.222 0.59974,1.1607 0.53466,3.0726 -0.0651,1.912 -0.45581,3.4769 -0.86831,3.4777 -0.4125,7e-4 -0.75,0.4779 -0.75,1.0604 0,0.5824 0.4949,0.7531 1.09977,0.3793 0.72794,-0.4499 0.69421,0.078 -0.0998,1.5617 -0.79398,1.4835 -0.82771,2.0115 -0.0998,1.5616 1.49685,-0.9251 1.39308,0.7224 -0.15023,2.3851 -1.00268,1.0802 -0.99593,1.2029 0.0341,0.6199 0.94343,-0.534 1.15996,-0.042 0.81622,1.8533 -0.28644,1.5796 -0.009,2.586 0.71592,2.5954 0.70126,0.01 0.57236,0.4104 -0.31622,0.9847 -0.825,0.5331 -1.02548,0.9762 -0.44551,0.9847 0.98426,0.014 1.53452,3.6382 1.8244,12.0153 0.0666,1.925 0.57111,3.8306 1.12111,4.2347 0.6141,0.4511 0.50404,0.7405 -0.28518,0.75 -0.97492,0.012 -1.02678,0.4981 -0.21482,2.0153 0.5887,1.1 0.77443,2 0.41274,2 -0.3617,0 -0.1908,0.5625 0.37978,1.25 1.31459,1.584 1.31459,2.916 0,4.5 -0.57058,0.6875 -0.63046,1.25 -0.13307,1.25 1.34667,0 1.51427,5.0857 0.21902,6.6464 -0.86024,1.0365 -0.76941,1.3536 0.38779,1.3536 1.66683,0 2.71678,4.1467 3.25093,12.8393 0.18046,2.9366 0.57208,5.5833 0.87027,5.8815 0.2982,0.2982 0.0922,1.383 -0.45783,2.4106 -0.55,1.0277 -0.63231,1.8686 -0.18292,1.8686 0.44939,0 0.91956,1.0125 1.04483,2.25 0.50597,4.9984 2.25129,9.8415 3.3107,9.1868 0.48117,-0.2974 0.60466,0.1634 0.27443,1.024 -0.33023,0.8605 -0.045,2.2339 0.6339,3.0519 0.67888,0.818 0.84172,1.5009 0.36187,1.5177 -0.47984,0.017 -0.0849,0.4891 0.87756,1.0497 0.9625,0.5606 1.75,2.0953 1.75,3.4105 0,1.3152 0.48068,2.6884 1.06817,3.0515 0.5875,0.3631 0.84766,1.2348 0.57815,1.9372 -0.26952,0.7023 0.0148,1.7818 0.63182,2.3988 0.82915,0.8292 0.77681,1.1219 -0.20058,1.1219 -0.93222,0 -1.02317,0.3688 -0.30821,1.25 1.76144,2.1709 2.14612,9.5684 0.52981,10.1887 -0.78426,0.3009 -1.12159,1.0396 -0.74963,1.6414 0.44305,0.7169 -0.31129,0.9907 -2.18721,0.7939 -1.57494,-0.1652 -3.49528,0.09 -4.26743,0.5673 -0.85917,0.531 -1.17298,0.494 -0.80875,-0.095 0.69701,-1.1278 -7.95831,-3.6667 -9.42014,-2.7632 -0.54561,0.3372 -1.94102,-0.2185 -3.10091,-1.2349 -1.15988,-1.0163 -1.84125,-1.3846 -1.51416,-0.8183 0.35281,0.6108 -0.49251,0.9668 -2.0781,0.8751 -1.47006,-0.085 -2.57741,-0.6096 -2.46079,-1.1658 0.14118,-0.6733 -1.02848,-0.6918 -3.5,-0.055 -7.77643,2.0021 -8.21204,2.0485 -8.21204,0.8741 0,-0.6466 0.51953,-0.8545 1.15451,-0.4621 0.73193,0.4524 0.88235,0.2732 0.41097,-0.4895 -0.56934,-0.9212 -1.07409,-0.9287 -2.15451,-0.032 -1.08535,0.9008 -1.41097,0.8854 -1.41097,-0.066 0,-0.8678 -0.76671,-0.7351 -2.56692,0.4445 -2.01535,1.3205 -2.87487,1.4263 -4,0.4925 -1.09752,-0.9109 -1.43292,-0.9127 -1.43292,-0.01 0,0.6498 -0.45,0.9034 -1,0.5635 -0.55,-0.34 -1,-0.1836 -1,0.3473 0,1.1026 -3.8769,0.3513 -5.75,-1.1142 -0.82814,-0.648 -1.25,-0.622 -1.25,0.077 0,0.5803 -0.98412,1.3674 -2.18694,1.7491 -2.11151,0.6702 -2.12217,0.7415 -0.30887,2.0674 1.03294,0.7553 1.48356,1.3733 1.00139,1.3733 -0.48217,0 -1.99074,-1.0125 -3.35238,-2.25 -1.36164,-1.2375 -2.18338,-1.7389 -1.82611,-1.1143 0.3887,0.6795 -0.33765,1.3243 -1.80848,1.6055 -1.35195,0.2584 -2.22015,0.085 -1.92933,-0.3856 0.29081,-0.4706 0.0852,-0.8556 -0.45694,-0.8556 -0.54213,0 -1.13119,0.7451 -1.30902,1.6557 -0.29989,1.5358 -0.4221,1.5366 -1.68663,0.011 z m 62.59248,-2.2709 c -0.33229,-0.3323 -1.1948,-0.3678 -1.91667,-0.079 -0.79773,0.3192 -0.56078,0.5562 0.60417,0.6042 1.05416,0.043 1.64479,-0.193 1.3125,-0.5253 z m -25.22917,-2.3958 c 0.33992,-0.55 0.14148,-1 -0.44098,-1 -0.58246,0 -1.05902,0.45 -1.05902,1 0,0.55 0.19844,1 0.44098,1 0.24254,0 0.7191,-0.45 1.05902,-1 z m 18.13837,-0.5 c -0.34388,-0.8962 -0.008,-1.5 0.834,-1.5 1.90309,0 2.85158,1.7091 1.28386,2.3134 -0.69093,0.2663 0.0938,0.3357 1.74377,0.1543 1.65,-0.1815 3.225,-0.4142 3.5,-0.5173 0.275,-0.103 0.82131,-0.1394 1.21401,-0.081 0.39271,0.058 0.45706,-0.5631 0.14301,-1.3815 -0.31405,-0.8184 -0.10427,-1.488 0.46619,-1.488 0.67695,0 0.73835,-1.042 0.17679,-3 -0.60888,-2.1231 -0.5154,-3.0045 0.31981,-3.0153 0.81126,-0.011 0.77293,-0.2737 -0.1226,-0.8417 -0.71653,-0.4545 -1.19795,-1.2351 -1.06982,-1.7347 0.28545,-1.113 -3.28493,-8.6601 -4.52079,-9.556 -0.49137,-0.3562 -0.60809,-1.7062 -0.25939,-3 0.54547,-2.0239 -1.0705,-8.9107 -3.25041,-13.8523 -0.36394,-0.825 -0.6471,-4.0863 -0.62925,-7.2473 0.0179,-3.161 -0.30505,-5.7485 -0.71755,-5.75 -0.4125,0 -0.75,-0.4793 -0.75,-1.0618 0,-0.5824 0.5625,-0.721 1.25,-0.308 0.71752,0.4311 0.61102,-0.035 -0.25,-1.0947 -0.825,-1.0151 -1.34797,-2.0081 -1.16215,-2.2067 0.18582,-0.1987 -0.17868,-3.4235 -0.80999,-7.1664 -0.63132,-3.7428 -1.02525,-7.2237 -0.8754,-7.7352 0.14984,-0.5114 -0.24176,-1.8542 -0.87023,-2.9838 -0.68825,-1.2371 -0.79549,-2.6157 -0.26966,-3.4665 0.53041,-0.8582 0.43015,-1.9462 -0.25547,-2.7723 -0.8539,-1.0289 -0.77915,-1.5808 0.3072,-2.2682 1.22245,-0.7736 1.20737,-0.9108 -0.1015,-0.9238 -0.84545,-0.01 -1.60572,-0.9251 -1.68947,-2.0369 -0.0929,-1.2337 0.27413,-1.7581 0.9417,-1.3455 0.64812,0.4005 0.80908,0.2151 0.39493,-0.455 -0.88685,-1.435 -1.22394,-4.1862 -2.10467,-17.1779 -0.39149,-5.775 -1.11534,-11.258 -1.60855,-12.1843 -1.26535,-2.3766 -1.11312,-6.1994 0.30326,-7.6157 0.93333,-0.9334 0.91743,-1.2 -0.0716,-1.2 -1.48238,0 -1.25473,-4.7348 0.33378,-6.942 0.78886,-1.0961 0.71953,-1.2504 -0.28904,-0.6435 -1.02339,0.6159 -1.21486,0.088 -0.83724,-2.308 0.26928,-1.7086 0.15124,-3.1065 -0.26231,-3.1065 -0.41355,0 -0.79664,-1.4625 -0.8513,-3.25 -0.0547,-1.7875 -0.30396,-8.4097 -0.55398,-14.7161 -0.25002,-6.3063 -0.0855,-12.4366 0.36551,-13.623 0.50832,-1.3369 0.39165,-2.5854 -0.30688,-3.284 -0.6738,-0.6738 -0.72293,-1.1269 -0.12214,-1.1269 0.55263,0 0.93589,-2.0407 0.85167,-4.5348 -0.0842,-2.4941 0.13083,-4.7102 0.47788,-4.9247 0.34705,-0.2144 0.52849,-2.2238 0.40319,-4.4652 -0.12529,-2.2415 0.1975,-4.0753 0.71733,-4.0753 0.51982,0 0.86153,-0.3375 0.75936,-0.75 -0.42998,-1.7359 3.43132,-8.7221 7.16543,-12.9643 2.21119,-2.51203 4.02034,-5.17903 4.02034,-5.92653 0,-0.7476 0.3453,-1.3592 0.76733,-1.3592 0.42204,0 0.69326,-1.575 0.60272,-3.5 -0.0905,-1.925 0.18908,-3.50003 0.62138,-3.50003 0.79514,0 1.46523,-2.81477 2.6187,-11 0.95349,-6.76609 0.97669,-11.06929 0.0836,-15.5 -0.85983,-4.26558 -0.92552,-6.78649 -0.26057,-10 0.22761,-1.1 0.44827,-2.3008 0.49035,-2.66844 0.0421,-0.36764 1.54023,-1.57307 3.32923,-2.67873 1.789,-1.10566 5.7265,-4.56766 8.75,-7.69333 3.0235,-3.12567 6.48811,-6.59506 7.69913,-7.70974 2.83762,-2.61189 10.63595,-20.35001 10.00588,-22.75941 -0.32126,-1.22849 -0.0457,-1.67356 0.82833,-1.33814 0.815,0.31275 1.21346,-0.15307 1.05493,-1.23325 -0.14013,-0.9547 0.34623,-4.25203 1.08079,-7.32739 1.36286,-5.70591 2.49411,-13.19817 2.46739,-16.34157 -0.008,-0.9625 0.31774,-1.75 0.72426,-1.75 0.84978,0 0.73086,-5.84753 -0.36605,-18 -0.42198,-4.675 -0.86945,-9.65518 -0.99438,-11.06706 -0.42808,-4.83783 -2.62274,-9.93049 -4.33055,-10.04894 -1.49087,-0.10341 -1.49687,-0.16288 -0.0552,-0.54775 1.12577,-0.30055 1.58159,-1.48041 1.5,-3.88261 -0.0645,-1.89796 -0.38311,-3.45148 -0.70809,-3.45224 -1.00422,-0.002 -3.08944,-10.90064 -2.32296,-12.14082 0.45118,-0.73003 0.28895,-0.90144 -0.43166,-0.45607 -0.63498,0.39244 -1.21194,0.34947 -1.28213,-0.0955 -0.0702,-0.44496 -0.22865,-1.71519 -0.35213,-2.82273 -0.12348,-1.10754 -0.9481,-3.41299 -1.8325,-5.12322 -0.88439,-1.71022 -1.36447,-3.35301 -1.06685,-3.65064 0.29763,-0.29763 -0.0362,-1.59218 -0.74179,-2.87678 -0.70561,-1.28461 -1.41707,-2.89815 -1.58102,-3.58565 -0.59105,-2.47846 -1.01801,-3.7917 -2.03204,-6.25 -0.56717,-1.375 -0.8325,-2.8375 -0.58962,-3.25 0.24288,-0.4125 0.0335,-0.75 -0.46523,-0.75 -0.49876,0 -0.96043,-1.2375 -1.02592,-2.75 -0.0655,-1.5125 -0.39448,-3.875 -0.73109,-5.25 -0.3366,-1.375 -0.8487,-3.625 -1.138,-5 -0.7329,-3.48336 -0.93928,-17 -0.25957,-17 0.3069,0 0.46454,-1.35 0.3503,-3 -0.11423,-1.65 0.1356,-3 0.55518,-3 0.41958,0 0.65068,-1.02203 0.51356,-2.27118 -0.22546,-2.05394 0.42935,-7.26714 1.89439,-15.08177 0.74209,-3.95841 3.34099,-7.64408 5.403,-7.66236 1.26394,-0.0112 1.38548,-0.23203 0.45332,-0.82363 -0.96388,-0.61172 -0.73966,-1.27682 0.92189,-2.73468 1.20754,-1.05951 1.89103,-1.40338 1.51887,-0.76416 -0.42811,0.73532 -0.0321,1.0389 1.07811,0.82651 0.96512,-0.18464 1.97976,-0.37703 2.25476,-0.42753 0.275,-0.0505 -0.16741,-0.51383 -0.98314,-1.02962 -1.15298,-0.72903 -0.41103,-1.41203 3.33311,-3.06824 2.64894,-1.17175 5.02682,-1.91988 5.28419,-1.66252 0.25736,0.25737 -0.90504,0.94656 -2.58311,1.53154 -1.67813,0.58499 -3.0511,1.28861 -3.0511,1.56361 0,0.7763 5.93372,-1.47969 6.56086,-2.49443 0.62632,-1.01341 8.42803,-1.22676 10.85161,-0.29675 0.86682,0.33264 1.32707,1.00764 1.02277,1.5 -0.3043,0.49237 -0.177,0.89522 0.28288,0.89522 1.41603,0 7.69121,6.18129 7.93053,7.81186 0.12418,0.8461 0.9385,1.93722 1.8096,2.42471 0.8711,0.48749 1.3159,1.31984 0.98845,1.84967 -0.32745,0.52982 5.9e-4,0.83966 0.72897,0.68854 0.72838,-0.15113 1.21183,0.28772 1.07433,0.97522 -0.1375,0.6875 0.5,1.25 1.41667,1.25 0.91666,0 1.37366,0.293 1.01554,0.65112 -0.35812,0.35812 0.12938,1.24381 1.08333,1.9682 1.01631,0.77174 1.2293,1.33024 0.51441,1.34888 -0.67102,0.0175 0.22898,1.55479 2,3.41622 1.77103,1.86143 3.50656,3.21639 3.85674,3.01101 0.35018,-0.20537 1.15647,0.25288 1.79174,1.01833 0.80158,0.96585 0.82861,1.55156 0.0883,1.91399 -0.58671,0.28724 -0.49299,0.38828 0.20826,0.22453 0.70125,-0.16375 2.23877,0.57767 3.41672,1.64759 1.17795,1.06992 2.82005,2.04487 3.64912,2.16655 0.82907,0.12168 2.22779,0.81912 3.10828,1.54986 0.88048,0.73073 1.61519,0.93601 1.63268,0.45616 0.0175,-0.47984 0.6925,10e-4 1.5,1.06869 0.80751,1.06762 1.4682,1.61975 1.4682,1.22695 0,-0.3928 1.08333,-0.004 2.4074,0.8632 1.67669,1.09861 2.61429,1.24263 3.08903,0.4745 0.49565,-0.80198 1.04916,-0.79787 2.02868,0.0151 0.93904,0.77933 1.92579,0.80821 3.25777,0.0954 1.07479,-0.57521 2.30588,-0.64517 2.81392,-0.15991 2.2218,2.12215 17.83027,-5.19589 15.67632,-7.34984 -0.33354,-0.33363 -0.0814,-0.60653 0.56022,-0.60653 1.62361,0 1.45791,-3.13919 -0.29802,-5.64613 -0.80559,-1.15013 -1.22167,-2.33417 -0.92464,-2.6312 0.29703,-0.29703 -0.28136,-0.77255 -1.28531,-1.05671 -4.25605,-1.20463 -8.93494,-2.01969 -10.41624,-1.81452 -2.50594,0.34711 -15.84826,-4.79058 -17.98192,-6.92424 -1.05996,-1.05996 -2.27104,-1.9272 -2.6913,-1.9272 -1.04612,0 -3.92888,-6.84653 -4.76954,-11.32762 -0.37892,-2.01981 -1.07474,-3.67238 -1.54627,-3.67238 -0.47152,0 -0.61225,-0.63865 -0.31272,-1.41921 0.29953,-0.780572 -0.16617,-2.503992 -1.03489,-3.829832 -0.86872,-1.32584 -1.24042,-2.78434 -0.82599,-3.24111 0.41443,-0.45678 0.25883,-0.54871 -0.34578,-0.20431 -0.6046,0.34441 -1.68698,-0.47192 -2.40527,-1.81406 -1.51201,-2.82522 -9.12292,-9.45412 -14.49131,-12.62155 -7.25052,-4.27791 -21.18179,-3.5502 -31.16238,1.62779 -2.95217,1.53161 -10.03481,8.10763 -13.0244,12.09279 -7.04683,9.393472 -10.28637,13.996022 -10.31309,14.652202 -0.0166,0.40848 -0.95146,2.38286 -2.07739,4.3875 -1.12594,2.00464 -2.18208,5.14838 -2.34699,6.9861 -0.1649,1.83772 -0.75245,3.91335 -1.30565,4.6125 -0.55321,0.69915 -1.25135,2.39619 -1.55141,3.77119 -0.30007,1.375 -0.84659,3.625 -1.2145,5 -0.3679,1.375 -0.70778,3.0625 -0.75529,3.75 -0.0475,0.6875 -0.57386,1.25689 -1.1697,1.26531 -0.7684,0.0109 -0.77143,0.22889 -0.0104,0.75 1.64072,1.12347 2.38266,3.87909 1.32832,4.93343 -1.02499,1.02499 -1.8573,13.30126 -0.90181,13.30126 0.32158,0 0.56673,1.35 0.5448,3 -0.0219,1.65 -0.32787,3 -0.67985,3 -0.35198,0 -0.451,1.6875 -0.22006,3.75 0.23095,2.0625 0.49545,4.7625 0.58778,6 0.0923,1.2375 0.58036,2.25 1.08451,2.25 0.50415,0 0.68139,0.89955 0.39388,1.999 -0.28751,1.09946 -0.115,2.25101 0.38337,2.55902 0.49837,0.30801 0.89923,1.09596 0.89081,1.751 -0.01,0.76717 -0.33146,0.69163 -0.90376,-0.21231 -0.64056,-1.01176 -0.84554,-0.68977 -0.73469,1.15404 0.0846,1.40653 0.46017,2.36817 0.83466,2.13698 0.3745,-0.2312 0.96356,0.037 1.30902,0.59596 0.34546,0.55897 0.25899,1.01631 -0.19216,1.01631 -1.20298,0 -1.16162,7.38228 0.0458,8.17378 0.68371,0.4482 0.61689,1.16895 -0.1996,2.15276 -0.97399,1.17359 -0.96072,1.60229 0.0643,2.07621 0.94032,0.43477 0.97545,0.74802 0.12916,1.15144 -0.86225,0.41103 -0.81089,1.23209 0.19882,3.1783 0.74877,1.44326 1.13288,2.99387 0.85356,3.44581 -0.27931,0.45193 0.0437,0.8217 0.71785,0.8217 0.67413,0 0.94353,0.28216 0.59867,0.62702 -0.34486,0.34485 0.007,2.14485 0.7823,4 0.77513,1.85514 1.05729,3.37298 0.62702,3.37298 -0.43027,0 -0.78231,0.675 -0.78231,1.5 0,0.825 0.51329,1.5 1.14065,1.5 0.64664,0 1.05077,1.29811 0.93313,2.99734 -0.11413,1.64853 0.19758,2.74698 0.69269,2.44098 0.49512,-0.30599 0.90021,0.39676 0.90021,1.56168 0,1.42828 0.40707,1.87347 1.25,1.36706 0.99707,-0.59902 0.99883,-0.44059 0.009,0.78299 -0.68273,0.84368 -0.9918,1.7835 -0.68682,2.08848 0.30498,0.30498 0.67012,3.04491 0.81141,6.08874 0.14129,3.04382 0.80971,6.20033 1.48537,7.01445 0.83607,1.00741 0.89243,1.68791 0.17643,2.13042 -1.15986,0.71684 -0.55157,5.71295 1.06285,8.72951 0.71884,1.34317 0.69946,2.32552 -0.064,3.24549 -0.8175,0.98502 -0.70839,1.46762 0.43061,1.90469 1.8387,0.70558 2.02055,3.30223 0.27552,3.93418 -0.94461,0.34209 -0.97881,0.91515 -0.13999,2.34561 0.66596,1.13567 0.78357,2.77539 0.294,4.09883 -0.44881,1.21324 -0.42806,2.44567 0.0461,2.73872 1.09494,0.67671 0.13404,4.53083 -1.12961,4.53083 -0.52042,0 -0.86612,0.7875 -0.76821,1.75 0.0979,0.9625 0.0958,1.975 -0.005,2.25 -0.2429,0.66495 -1.21464,7.1676 -1.30759,8.75 -0.0404,0.6875 -0.44841,1.25 -0.90675,1.25 -0.45832,0 -0.83332,0.89658 -0.83332,1.99239 0,2.32215 -3.90449,7.18467 -5.15068,6.41449 -0.46713,-0.2887 -0.84932,0.16618 -0.84932,1.01085 0,1.91463 -9.5512,9.58227 -11.93616,9.58227 -0.96611,0 -3.13737,0.68884 -4.82503,1.53075 -2.84225,1.41791 -3.33502,1.38104 -6.68406,-0.5 -1.98857,-1.11691 -4.46509,-2.03075 -5.50338,-2.03075 -2.51244,0 -5.13891,-1.05003 -4.63942,-1.85478 0.22026,-0.35487 -2.0404,-0.56262 -5.0237,-0.46166 -2.98329,0.10096 -5.17906,-0.21302 -4.8795,-0.69773 0.29957,-0.4847 -0.47985,-0.65556 -1.73204,-0.37968 -1.25219,0.27588 -3.17671,0.64481 -4.27671,0.81984 -2.75963,0.4391 -15.92356,6.65593 -16.33333,7.71362 -0.18334,0.47322 -1.10069,0.86039 -2.03856,0.86039 -1.85687,0 -8.23268,3.03101 -10.86582,5.16553 -1.40187,1.1364 -1.5325,1.11183 -0.88009,-0.16553 0.45769,-0.89612 0.19363,-0.80229 -0.65589,0.23306 -0.78211,0.95318 -2.37888,1.87908 -3.54839,2.05756 -1.16951,0.17848 -2.47548,0.70825 -2.90215,1.17727 -0.42667,0.46902 -0.10077,0.48347 0.72423,0.0321 0.825,-0.45136 1.1509,-0.43691 0.72423,0.0321 -0.42667,0.46902 -1.76705,1.00404 -2.97861,1.18894 -1.21157,0.1849 -2.63997,0.7733 -3.17423,1.30756 -0.53427,0.53427 -1.89389,0.97828 -3.02139,0.9867 -1.56133,0.0117 -1.72029,0.22413 -0.66686,0.8913 1.01938,0.64561 0.57148,1.05426 -1.70304,1.55383 -1.6974,0.37281 -4.20315,1.55645 -5.56833,2.6303 -1.36519,1.07386 -2.84882,1.88945 -3.29696,1.81244 -2.14253,-0.36819 -3.36659,0.20403 -2.70978,1.26676 0.47876,0.77465 0.18819,0.96469 -0.86,0.56246 -0.88295,-0.33882 -2.57103,0.24939 -3.81705,1.33006 -1.2287,1.06565 -2.61515,1.99379 -3.08099,2.06254 -0.46584,0.0688 -1.29699,0.2375 -1.84699,0.375 -0.55,0.1375 -2.15156,0.30625 -3.55902,0.375 -1.5855,0.0774 -2.30044,0.54338 -1.87932,1.22477 0.44989,0.72794 -0.0781,0.69421 -1.56166,-0.0998 -1.48357,-0.79398 -2.01155,-0.82771 -1.56166,-0.0998 0.37383,0.60487 0.12607,1.09977 -0.55058,1.09977 -0.67665,0 -2.13056,0.7875 -3.23091,1.75 -1.10035,0.9625 -1.67173,1.1875 -1.26973,0.5 0.93637,-1.60137 0.46392,-1.57292 -2.9051,0.17495 -1.72142,0.89309 -3.53705,1.12997 -4.86431,0.63465 -1.16474,-0.43467 -3.01771,-0.4572 -4.11771,-0.0501 -1.1,0.40712 -2.35721,0.53279 -2.7938,0.27926 -0.4366,-0.25353 -1.40904,0.0496 -2.16098,0.67369 -0.93983,0.77999 -1.56972,0.8069 -2.01521,0.0861 -0.35642,-0.57662 -1.09804,-1.04847 -1.64804,-1.04847 -0.55,0 -0.72189,0.45 -0.38197,1 0.33992,0.55 -0.19602,1.05017 -1.19098,1.1115 -6.34462,0.39105 -7.88832,0.28057 -8.54371,-0.6115 -0.45499,-0.61931 -0.74051,-0.52413 -0.75,0.25 -0.008,0.6875 -0.49187,1.25 -1.07433,1.25 -0.58246,0 -0.80247,-0.4151 -0.48891,-0.92246 0.34257,-0.55429 -0.73144,-0.59302 -2.69098,-0.0971 -1.7936,0.45398 -4.61109,1.12375 -6.26109,1.4884 -2.89987,0.64086 -2.93325,0.60825 -1,-0.97711 1.1,-0.90205 1.47712,-1.37966 0.83805,-1.06134 -1.9657,0.9791 -12.4695,1.59127 -11.91523,0.69443 0.2868,-0.46405 -0.7035,-0.66247 -2.20068,-0.44094 -3.16821,0.46879 -24.43419,0.34896 -28.46946,-0.16043 -1.51103,-0.19074 -4.43603,-0.6069 -6.5,-0.9248 -2.06398,-0.3179 -6.67768,-0.82365 -10.25268,-1.1239 -3.575,-0.30025 -8.23292,-1.00949 -10.35094,-1.57608 -2.11802,-0.56659 -4.07889,-0.80223 -4.35749,-0.52363 -1.27541,1.27541 18.37406,5.23428 29.20843,5.88476 3.30082,0.19817 4.05596,0.63422 4.32014,2.49462 0.46462,3.27197 -2.0172,3.78411 -10.72965,2.21411 -4.17477,-0.7523 -9.86776,-1.40825 -12.65109,-1.45767 -3.28767,-0.0584 -6.3683,-0.86142 -8.79328,-2.29219 -2.05297,-1.21129 -4.9507,-2.49011 -6.4394,-2.84183 -1.4887,-0.35172 -4.28104,-1.8179 -6.20521,-3.25819 -4.36899,-3.27029 -11.48808,-7.11464 -13.2057,-7.13117 -0.7127,-0.007 -3.22786,-1.80685 -5.58927,-4 -2.3614,-2.19314 -4.9114,-3.98753 -5.66666,-3.98753 -0.75527,0 -1.52321,-0.3375 -1.70655,-0.75 -0.18333,-0.4125 -1.82236,-1.79558 -3.64228,-3.07352 -2.70427,-1.89892 -3.5831,-2.096 -4.80916,-1.07846 -0.82512,0.68479 -2.68994,1.37192 -4.14405,1.52695 -2.44455,0.26068 -15.23784,6.18793 -15.23784,7.05988 0,0.6198 3.36551,5.63286 5,7.44769 0.825,0.91603 2.625,3.33141 4,5.36751 1.375,2.0361 3.22237,4.49142 4.10527,5.45627 0.88289,0.96484 1.90858,2.9628 2.27931,4.43989 0.41089,1.63712 1.11335,2.41414 1.79925,1.99023 0.6397,-0.39536 0.84956,-0.24943 0.48638,0.33821 -0.35135,0.56849 0.92476,3.00052 2.83578,5.40451 1.91103,2.40399 3.47897,4.85495 3.4843,5.44658 0.005,0.59162 1.13471,2.13256 2.50971,3.42431 1.375,1.29175 2.50194,3.05773 2.5043,3.92433 0.002,0.8666 1.68987,3.8257 3.75,6.5758 2.06014,2.7501 4.3607,6.35013 5.11237,8.00003 0.75167,1.6499 1.76417,3.7813 2.25,4.7363 0.48583,0.955 0.88333,2.4175 0.88333,3.25 0,0.8325 0.43588,1.5136 0.96862,1.5136 0.53273,0 0.72625,0.6315 0.43003,1.4035 -0.29621,0.7719 0.34037,3.2227 1.41464,5.4462 l 1.95321,4.0426 -2.77655,0.6099 -2.77656,0.6098 1.87707,5.1355 c 1.03239,2.8245 2.80164,10.2995 3.93166,16.6112 1.65299,9.2327 1.80276,11.6356 0.76623,12.2932 -0.95119,0.6035 -0.83038,0.8214 0.46165,0.8328 1.95959,0.017 2.33761,1.5341 0.64324,2.5812 -0.78632,0.486 -0.74664,0.9066 0.13704,1.4528 0.74919,0.463 1.28872,3.196 1.35676,6.8726 0.0621,3.3571 0.42424,6.105 0.80469,6.1063 0.38046,10e-4 0.6776,1.4649 0.66032,3.2524 -0.0173,1.7875 0.17126,4.9375 0.41898,7 0.24772,2.0625 0.0365,3.75 -0.46933,3.75 -0.50585,0 -0.6177,0.4887 -0.24854,1.086 0.36915,0.5973 0.78408,7.1356 0.92206,14.5297 0.13799,7.394 0.5336,13.7264 0.87916,14.072 0.34555,0.3455 0.0697,1.3185 -0.61306,2.1622 -0.99015,1.2236 -0.98839,1.382 0.009,0.783 0.84293,-0.5064 1.25,-0.061 1.25,1.3671 0,1.3463 -0.42063,1.858 -1.15451,1.4045 -0.79186,-0.4894 -0.87755,-0.2724 -0.27281,0.691 0.48494,0.7724 0.91451,6.8144 0.9546,13.4265 0.0401,6.6121 0.45738,12.6441 0.92731,13.4045 0.51118,0.8271 0.47569,1.1484 -0.0883,0.7998 -0.53844,-0.3328 -1.04388,1.8337 -1.17853,5.0513 -0.13026,3.113 -0.78434,5.9825 -1.46174,6.4129 -0.67429,0.4284 -0.77598,0.786 -0.22598,0.7948 1.13203,0.018 1.28686,8.9325 0.18607,10.7136 -0.53633,0.8678 -6.18607,1.1358 -6.18607,0.2935 0,-0.4158 -4.461,-1.0905 -7.75,-1.1721 -2.0625,-0.051 -3.75,-0.4817 -3.75,-0.9567 0,-0.475 -0.47656,-0.8636 -1.05902,-0.8636 -0.58246,0 -0.79877,0.421 -0.4807,0.9357 0.34903,0.5647 -0.51961,0.6223 -2.19099,0.1453 -1.52311,-0.4348 -3.66929,-0.4624 -4.76929,-0.061 -1.1,0.401 -2.79392,0.3163 -3.76427,-0.1881 -1.26145,-0.6558 -1.68896,-0.5555 -1.5,0.3519 0.14535,0.698 -0.86073,1.4303 -2.23573,1.6275 -1.375,0.1971 -2.9275,0.7703 -3.45,1.2737 -0.5225,0.5034 -1.77882,0.9153 -2.79181,0.9153 -1.013,0 -2.80785,0.9 -3.98856,2 -2.63892,2.4585 -5.72038,2.8505 -3.75063,0.4771 1.05678,-1.2733 0.99492,-1.4196 -0.37756,-0.893 -1.85882,0.7133 -2.13252,1.9944 -0.62513,2.926 1.44556,0.8934 0.0583,2.7325 -1.58544,2.1018 -0.75175,-0.2885 -1.63733,-0.087 -1.96794,0.4481 -0.33062,0.535 -1.08956,0.6708 -1.68654,0.3018 -0.66346,-0.41 -0.79636,-0.2031 -0.34187,0.5323 0.576,0.932 1.11778,0.9203 2.40451,-0.052 0.91353,-0.6903 0.11019,0.4129 -1.7852,2.4514 -2.16636,2.33 -2.9091,3.7122 -2,3.7218 1.15862,0.012 1.1844,0.1813 0.12969,0.8501 -1.14307,0.7248 -1.82812,2.4947 -2.10701,5.4436 -0.0421,0.445 -0.52651,0.5309 -1.07651,0.191 -0.55,-0.3399 -1,-0.168 -1,0.382 0,1.4556 1.51571,2.1701 5.32904,2.5123 1.8543,0.1664 3.77635,0.5367 4.27121,0.8228 3.44682,1.9929 20.81534,2.5174 30.01234,0.9062 11.081,-1.9411 13.48637,-2.0951 12.71786,-0.8141 -0.47149,0.7859 -0.17091,0.7506 0.88408,-0.1041 1.01726,-0.824 4.08673,-1.2304 8.44196,-1.1176 12.40445,0.3212 29.45781,-1.059 30.89959,-2.5007 0.74178,-0.7418 1.11837,-1.579 0.83689,-1.8605 -0.4456,-0.4456 -1.36326,-14.7835 -1.3839,-21.6227 -0.004,-1.3181 -0.57015,-3.092 -1.25815,-3.942 -1.01867,-1.2586 -1.00109,-1.3951 0.0947,-0.7355 1.10898,0.6676 1.21846,-0.8373 0.62261,-8.558 -0.71288,-9.2371 -0.77946,-11.4283 -0.46695,-15.3681 0.42964,-5.4164 -1.31707,-23.0789 -2.34721,-23.7347 -0.77012,-0.4903 -0.79212,-0.7398 -0.0661,-0.75 0.69972,-0.01 1.01076,-2.513 0.87171,-7.0153 -0.14365,-4.6513 0.16239,-7.0052 0.91209,-7.0153 0.64908,-0.01 0.5399,-0.388 -0.25706,-0.8927 -0.91707,-0.5808 -1.16414,-1.7587 -0.73095,-3.4847 0.3595,-1.4339 0.27609,-2.6072 -0.18579,-2.6072 -0.46187,0 -0.54835,-2.2716 -0.19217,-5.048 0.35617,-2.7764 0.24482,-5.2969 -0.24746,-5.6012 -0.49228,-0.3042 -0.65902,-1.1682 -0.37055,-1.92 0.28848,-0.7517 0.0723,-1.6463 -0.48038,-1.9878 -0.65337,-0.4038 -0.59525,-1.1147 0.16612,-2.0321 0.64405,-0.776 0.7784,-1.4178 0.29855,-1.4262 -0.47984,-0.01 -0.19744,-0.4516 0.62756,-0.9847 1.17818,-0.7614 1.20554,-0.9727 0.12756,-0.9847 -1.03452,-0.012 -1.09821,-0.3458 -0.25868,-1.3573 0.61257,-0.7381 0.80196,-1.6539 0.42086,-2.035 -0.3811,-0.3811 -0.79148,-2.8147 -0.91194,-5.408 -0.12047,-2.5932 -0.28919,-4.715 -0.37493,-4.715 -0.72613,0 -0.60649,-3.627 0.13475,-4.0851 0.58312,-0.3604 0.60165,-1.0484 0.0472,-1.754 -1.19112,-1.5159 -1.12078,-4.6609 0.10429,-4.6609 0.59598,0 0.60426,-0.4706 0.022,-1.25 -2.72156,-3.6432 3.78812,-12.1152 10.23883,-13.3254 1.94884,-0.3656 3.79362,-0.4144 4.09953,-0.1085 0.30591,0.3059 1.61899,0.1521 2.91797,-0.3418 1.49347,-0.5678 2.59135,-0.5265 2.98621,0.1124 0.41412,0.6701 1.06742,0.6427 1.93974,-0.081 0.72343,-0.6004 2.45779,-0.8048 3.85414,-0.4544 1.39635,0.3505 3.10417,0.2878 3.79516,-0.1392 1.71107,-1.0575 5.85733,-1.1706 5.85733,-0.1597 0,0.45 0.9093,0.3316 2.02067,-0.2632 1.11136,-0.5948 2.48108,-0.7969 3.0438,-0.4491 0.56273,0.3478 1.67843,0.088 2.47933,-0.5762 1.15448,-0.9581 1.45937,-0.9242 1.47151,0.1639 0.012,1.078 0.22329,1.0506 0.98469,-0.1276 0.70439,-1.0899 0.97356,-1.1421 0.98469,-0.1909 0.008,0.7199 0.48502,1.0187 1.05911,0.6639 0.5741,-0.3548 1.78335,-0.044 2.68724,0.6909 1.42338,1.1572 1.55561,1.1018 0.98758,-0.4139 -0.67608,-1.804 -0.41656,-1.9013 5.53138,-2.0743 1.5125,-0.044 2.75,-0.4656 2.75,-0.9368 0,-0.4713 0.45734,-0.5742 1.01631,-0.2288 0.55897,0.3455 0.7606,1.0419 0.44806,1.5476 -0.31253,0.5057 0.14161,0.647 1.00922,0.3141 1.21936,-0.4679 1.31686,-0.9193 0.42949,-1.9885 -1.20707,-1.4545 -0.98142,-1.5634 3.69485,-1.7842 1.15387,-0.054 3.40387,-0.7141 5,-1.4657 1.59614,-0.7517 3.57707,-1.6689 4.40207,-2.0383 0.825,-0.3693 2.68796,-0.6341 4.13992,-0.5884 1.84457,0.058 2.48154,-0.3295 2.11422,-1.2868 -0.35155,-0.9161 0.099,-1.2622 1.36008,-1.0449 1.15161,0.1985 1.7788,-0.1906 1.611,-0.9993 -0.15316,-0.7382 0.20822,-1.0258 0.81654,-0.6499 0.60022,0.371 1.6362,-0.071 2.30217,-0.9814 0.66597,-0.9108 1.87353,-1.789 2.68347,-1.9515 0.80993,-0.1626 2.5976,-0.7533 3.9726,-1.3128 1.375,-0.5595 3.13632,-0.7749 3.91404,-0.4787 0.98265,0.3742 1.16142,0.1297 0.58596,-0.8014 -0.60515,-0.9791 -0.38009,-1.1679 0.83596,-0.7013 1.04996,0.4029 1.66404,0.1361 1.66404,-0.7231 0,-1.6504 2.7683,-2.9749 5.5,-2.6315 1.1,0.1383 1.66949,-0.085 1.26554,-0.4974 -0.93076,-0.9491 2.19286,-3.3727 4.40113,-3.4149 0.91666,-0.018 1.8261,-0.5101 2.02097,-1.0947 0.19487,-0.5846 1.63354,-1.2033 3.19704,-1.3749 1.56351,-0.1717 3.12907,-0.7059 3.47903,-1.1871 0.34996,-0.4813 1.19879,-0.9201 1.88629,-0.9751 2.84974,-0.2279 3.34307,-0.4404 2.85538,-1.2295 -0.28196,-0.4562 1.44873,-0.7937 3.84599,-0.75 2.39725,0.044 4.12003,-0.3062 3.8284,-0.7776 -0.29162,-0.4714 0.42612,-0.5536 1.595,-0.1826 1.16888,0.371 2.12523,0.2666 2.12523,-0.2319 0,-1.487 7.03837,-0.7815 8.0425,0.8062 0.77859,1.231 0.92932,1.1905 0.94219,-0.2532 0.015,-1.6814 0.43467,-1.7063 4.51531,-0.2685 1.1,0.3875 3.9048,0.8494 6.23289,1.0263 2.32809,0.1769 4.71458,0.6194 5.3033,0.9832 0.58872,0.3638 2.95891,0.8754 5.2671,1.1369 2.30819,0.2614 4.33828,0.8697 4.51132,1.3518 0.17303,0.4821 0.90251,0.651 1.62106,0.3752 0.71855,-0.2757 1.93769,0.087 2.7092,0.8062 0.77151,0.7192 1.84203,1.3929 2.37894,1.4972 2.13122,0.4141 8.88492,4.2332 7.55188,4.2705 -1.05688,0.03 -0.89564,0.6203 0.62503,2.2898 2.85858,3.1385 4.18614,5.967 4.89105,10.421 0.33331,2.106 0.86653,4.253 1.18495,4.7713 0.31841,0.5182 0.69823,5.0182 0.84404,10 0.40519,13.8437 1.23304,24.5122 1.99817,25.7502 0.45079,0.7294 0.23082,0.8327 -0.63436,0.298 -1.00791,-0.6229 -1.12859,-0.3611 -0.50493,1.0955 0.45073,1.0527 0.8647,4.2764 0.91993,7.1637 0.0552,2.8873 0.37967,5.2498 0.72096,5.25 0.34129,2e-4 0.62529,1.9128 0.6311,4.2503 0.006,2.3375 0.31348,7.625 0.6837,11.75 0.37021,4.125 0.76023,8.7375 0.86671,10.25 0.10648,1.5125 0.45708,2.75 0.77911,2.75 1.04501,0 0.64877,3.4784 -0.4824,4.2347 -0.69018,0.4615 -0.48717,0.7404 0.54594,0.75 1.36153,0.013 1.50906,0.6167 0.8569,3.5083 -0.46684,2.0699 -0.41522,3.2627 0.1267,2.9277 0.50297,-0.3108 0.85503,0.7049 0.78236,2.2571 -0.0727,1.5522 0.21295,4.3547 0.63471,6.2277 0.49078,2.1796 0.41064,3.1854 -0.2226,2.794 -0.54418,-0.3363 -0.98943,8e-4 -0.98943,0.7492 0,0.8238 0.62465,1.1271 1.58334,0.7688 1.31041,-0.4899 1.36936,-0.3283 0.34201,0.9373 -0.68273,0.8411 -0.93718,1.8334 -0.56545,2.2051 0.37173,0.3718 0.77791,3.0304 0.90261,5.908 0.1247,2.8777 0.30415,5.2321 0.39878,5.2321 0.25056,0 0.95027,4.3944 1.43306,9 0.23061,2.2 0.51175,4 0.62476,4 0.113,0 0.33913,1.125 0.50251,2.5 0.40681,3.4238 1.01351,6.9138 1.84673,10.6232 0.84929,3.7811 -0.72481,4.7181 -5.5843,3.3245 -5.11446,-1.4668 -11.92159,-0.8622 -16.31458,1.4492 -2.19846,1.1567 -4.22346,2.3281 -4.5,2.6031 -0.27654,0.275 -2.02746,1.3497 -3.89093,2.3882 -3.8635,2.153 -7.51964,5.5374 -6.78054,6.2765 0.27391,0.2739 -0.58218,2.0898 -1.90241,4.0352 -1.32023,1.9455 -2.15527,3.9339 -1.85565,4.4187 0.77117,1.2478 5.17592,1.0963 5.98058,-0.2057 0.48382,-0.7828 0.97617,-0.7828 1.75902,0 0.59792,0.5979 1.55963,1.0802 2.13713,1.0718 0.5775,-0.01 0.375,-0.4515 -0.45,-0.9847 -1.1647,-0.7527 -0.87209,-0.9728 1.30902,-0.9847 1.54496,-0.01 2.56095,0.3861 2.25775,0.8767 -0.31054,0.5025 1.30119,0.4727 3.69099,-0.068 2.33323,-0.5281 5.47974,-0.7157 6.99224,-0.417 2.079,0.4106 2.75,0.1534 2.75,-1.0543 0,-1.3065 0.27313,-1.3707 1.5,-0.3525 1.20883,1.0032 1.51532,0.9785 1.57895,-0.1276 0.0583,-1.0134 0.21087,-1.0455 0.58333,-0.1224 0.69179,1.7144 4.27414,1.5792 4.95186,-0.1869 0.70466,-1.8363 3.38586,-0.8583 3.38586,1.235 0,1.2848 0.27983,1.2174 1.481,-0.357 1.28318,-1.6819 1.6171,-1.7408 2.5,-0.4411 0.90578,1.3333 1.12841,1.3333 2.00369,0 0.81932,-1.2481 0.98983,-1.1642 1.01531,0.5 0.0231,1.5055 0.24318,1.6645 0.89031,0.6432 0.60153,-0.9493 1.06578,-1.0233 1.54598,-0.2463 0.40023,0.6476 1.76494,0.8397 3.27415,0.4609 1.95004,-0.4894 2.39356,-0.3351 1.79952,0.6261 -0.5265,0.8519 -0.32692,1.1079 0.60084,0.7708 0.76406,-0.2776 1.3017,-0.936 1.19476,-1.4631 -0.10695,-0.527 0.45805,-0.9583 1.25556,-0.9583 0.7975,0 1.39419,0.4875 1.32596,1.0833 -0.22422,1.9582 0.10228,3.5834 0.71991,3.5834 0.33384,0 0.34797,-0.675 0.0314,-1.5 z m 4.95819,-0.3438 c -0.34605,-0.5599 -0.1419,-1.3192 0.45366,-1.6873 1.53748,-0.9502 2.52947,0.3514 1.24598,1.6349 -0.71818,0.7181 -1.27752,0.7354 -1.69964,0.052 z m -48.09656,-3.1562 c -1.63041,-0.7006 -1.68751,-0.8725 -0.30902,-0.9297 0.93004,-0.039 1.9691,0.3797 2.30902,0.9297 0.71066,1.1498 0.67591,1.1498 -2,0 z M 365.54777,348.2011 c 0.97297,-0.25354 2.32297,-0.23687 3,0.0371 0.67703,0.27393 -0.11903,0.48137 -1.76903,0.46099 -1.65,-0.0204 -2.20394,-0.2445 -1.23097,-0.49804 z m -64.01903,235.03075 c -0.6875,-0.2774 -1.8125,-0.2774 -2.5,0 -0.6875,0.2774 -0.125,0.5044 1.25,0.5044 1.375,0 1.9375,-0.227 1.25,-0.5044 z m -102.79271,-1.2686 c 0.31644,-0.512 0.19299,-1.1672 -0.27431,-1.456 -0.46731,-0.2889 -0.84965,0.13 -0.84965,0.9309 0,1.6861 0.31534,1.8334 1.12396,0.5251 z m 104.54271,-3.0691 c 0.825,-0.5332 1.05,-0.9694 0.5,-0.9694 -0.55,0 -1.675,0.4362 -2.5,0.9694 -0.825,0.5331 -1.05,0.9693 -0.5,0.9693 0.55,0 1.675,-0.4362 2.5,-0.9693 z m 4.39699,-1.8334 c 0.28327,-0.4583 -0.12038,-0.8333 -0.89699,-0.8333 -0.77661,0 -1.18026,0.375 -0.89699,0.8333 0.28326,0.4584 0.68691,0.8334 0.89699,0.8334 0.21008,0 0.61373,-0.375 0.89699,-0.8334 z m -3.09932,-1.5 c 0.28141,-0.7333 -0.0455,-1.3333 -0.72634,-1.3333 -0.6809,0 -1.238,0.6 -1.238,1.3333 0,0.7334 0.32686,1.3334 0.72635,1.3334 0.39949,0 0.95658,-0.6 1.23799,-1.3334 z m -3.5685,-0.2708 c -0.3323,-0.3323 -1.1948,-0.3678 -1.91667,-0.079 -0.79773,0.3192 -0.56078,0.5562 0.60417,0.6042 1.05416,0.043 1.64479,-0.193 1.3125,-0.5253 z m 11.27083,-2.8958 c 0,-0.1468 -1.05,-0.4676 -2.33333,-0.7129 -1.3588,-0.2598 -2.33334,0.038 -2.33334,0.7129 0,0.6749 0.97454,0.9726 2.33334,0.7129 1.28333,-0.2454 2.33333,-0.5662 2.33333,-0.7129 z m -5.54271,-3.4309 c 0.31644,-0.512 0.19299,-1.1672 -0.27431,-1.456 -0.46731,-0.2889 -0.84965,0.13 -0.84965,0.9309 0,1.6861 0.31534,1.8334 1.12396,0.5251 z m 141.34468,-1.5378 c 0.29225,-0.2922 -0.41708,-0.5313 -1.57629,-0.5313 -1.1592,0 -2.37122,0.4264 -2.69337,0.9477 -0.5901,0.9548 3.27546,0.5778 4.26966,-0.4164 z m -139.37126,-5.434 c -0.26308,-0.263 -1.25511,0.3327 -2.20452,1.3239 -1.64929,1.722 -1.62798,1.7433 0.47833,0.4784 1.21249,-0.7282 1.98927,-1.5392 1.72619,-1.8023 z m 138.56929,1.9027 c 0,-0.55 -0.19844,-1 -0.44098,-1 -0.24254,0 -0.7191,0.45 -1.05902,1 -0.33992,0.55 -0.14148,1 0.44098,1 0.58246,0 1.05902,-0.45 1.05902,-1 z m -230.87244,-1.75 c 1.24387,-1.5861 1.2085,-1.6215 -0.37756,-0.3776 -0.9625,0.7549 -1.75,1.5424 -1.75,1.75 0,0.823 0.82119,0.2933 2.12756,-1.3724 z m 272.85745,-0.278 c -0.59695,-1.1154 -1.53971,-1.7472 -2.09502,-1.404 -0.59775,0.3694 -0.2713,1.1838 0.80017,1.9962 2.4267,1.8399 2.56309,1.7775 1.29485,-0.5922 z m -10.66928,-2.2702 c -0.48297,-0.7815 -0.79927,-0.7512 -1.08422,0.1036 -0.22128,0.6639 -0.76291,0.9842 -1.20361,0.7118 -0.44071,-0.2724 -1.35247,0.1689 -2.02614,0.9806 -1.06318,1.2811 -0.81431,1.3328 1.88551,0.3916 1.85238,-0.6457 2.83456,-1.5305 2.42846,-2.1876 z m -170.58656,0.694 c -0.3323,-0.3323 -1.1948,-0.3678 -1.91667,-0.079 -0.79773,0.3192 -0.56078,0.5562 0.60417,0.6042 1.05416,0.043 1.64479,-0.193 1.3125,-0.5253 z m 174.77083,-0.3958 c -0.33992,-0.55 -1.15398,-0.9931 -1.80902,-0.9847 -0.71561,0.01 -0.59227,0.4022 0.30902,0.9847 1.92112,1.2415 2.2673,1.2415 1.5,0 z m -173.37591,-3.2667 c -0.98762,-0.9803 -1.10248,-0.8654 -0.5598,0.5598 0.37553,0.9862 0.93469,1.5412 1.24258,1.2333 0.30789,-0.3079 6.4e-4,-1.1148 -0.68278,-1.7931 z m -8.39492,-0.3375 c -0.3323,-0.3323 -1.1948,-0.3678 -1.91667,-0.079 -0.79773,0.3192 -0.56078,0.5562 0.60417,0.6042 1.05416,0.043 1.64479,-0.193 1.3125,-0.5253 z m 23.66782,-0.2292 c 0.28327,-0.4583 -0.12038,-0.8333 -0.89699,-0.8333 -0.77661,0 -1.18026,0.375 -0.89699,0.8333 0.28326,0.4584 0.68691,0.8334 0.89699,0.8334 0.21008,0 0.61373,-0.375 0.89699,-0.8334 z m -21.87053,-3.9735 c -0.30789,-0.3079 -1.11479,-6e-4 -1.79313,0.6828 -0.98026,0.9876 -0.8654,1.1025 0.5598,0.5598 0.98622,-0.3756 1.54122,-0.9347 1.23333,-1.2426 z m -3.60035,-0.6041 c 0.89667,-1.0804 0.88916,-1.5852 -0.0321,-2.1545 -0.76584,-0.4733 -0.94185,-0.3209 -0.48431,0.4194 0.43235,0.6996 -0.20339,1.5328 -1.5955,2.0911 -1.52335,0.611 -1.75803,0.9499 -0.68668,0.9916 0.89515,0.035 2.1545,-0.5716 2.79855,-1.3476 z m 4.31766,-2.2534 c -0.69093,-0.2785 -1.07161,-0.8055 -0.84596,-1.171 0.22565,-0.3656 -0.77529,-0.736 -2.22431,-0.8232 l -2.63458,-0.1586 2.48054,1.3732 c 1.3643,0.7552 2.93054,1.3535 3.48054,1.3296 0.55,-0.024 0.4347,-0.2714 -0.25623,-0.55 z m 10.15322,-0.169 c 0.28327,-0.4583 -0.12038,-0.8333 -0.89699,-0.8333 -0.77661,0 -1.18026,0.375 -0.89699,0.8333 0.28326,0.4584 0.68691,0.8334 0.89699,0.8334 0.21008,0 0.61373,-0.375 0.89699,-0.8334 z m -10.39699,-4.2123 c 1.09546,-0.7413 0.69092,-0.8341 -1.5,-0.344 -3.67693,0.8224 -4.47511,1.3948 -1.91667,1.3744 1.05417,-0.01 2.59167,-0.4721 3.41667,-1.0304 z m 180,0.6047 c 0,-0.2426 -0.45,-0.7191 -1,-1.059 -0.55,-0.34 -1,-0.1415 -1,0.4409 0,0.5825 0.45,1.0591 1,1.0591 0.55,0 1,-0.1985 1,-0.441 z m -169.58928,-2.4146 c 0.29082,-0.4705 -0.58263,-0.6431 -1.94098,-0.3834 -1.35836,0.2597 -2.46974,0.6447 -2.46974,0.8555 0,0.7738 3.89864,0.3565 4.41072,-0.4721 z m 170.0822,-1.133 c 0.35034,-0.5668 -0.0511,-0.7345 -0.94098,-0.393 -1.73242,0.6648 -2.04939,1.3816 -0.61096,1.3816 0.51754,0 1.21592,-0.4449 1.55194,-0.9886 z m -172.99292,-2.0114 c 0.33992,-0.55 0.16803,-1 -0.38197,-1 -0.55,0 -1.27811,0.45 -1.61803,1 -0.33992,0.55 -0.16803,1 0.38197,1 0.55,0 1.27811,-0.45 1.61803,-1 z m -7.77083,-1.6042 c -0.3323,-0.3323 -1.1948,-0.3678 -1.91667,-0.079 -0.79773,0.3192 -0.56078,0.5562 0.60417,0.6042 1.05416,0.043 1.64479,-0.193 1.3125,-0.5253 z m 10.39839,-2.1458 c 1.24387,-1.5861 1.2085,-1.6215 -0.37756,-0.3776 -0.9625,0.7549 -1.75,1.5424 -1.75,1.75 0,0.823 0.82119,0.2933 2.12756,-1.3724 z m -4.67027,-3.1809 c 0.31644,-0.512 0.19299,-1.1672 -0.27431,-1.456 -0.46731,-0.2889 -0.84965,0.13 -0.84965,0.9309 0,1.6861 0.31534,1.8334 1.12396,0.5251 z m -1.20729,-3.7314 c -0.6875,-0.2774 -1.8125,-0.2774 -2.5,0 -0.6875,0.2774 -0.125,0.5044 1.25,0.5044 1.375,0 1.9375,-0.227 1.25,-0.5044 z m -1.25,-4.3377 c 0,-0.55 -0.47656,-1 -1.05902,-1 -0.58246,0 -0.7809,0.45 -0.44098,1 0.33992,0.55 0.81648,1 1.05902,1 0.24254,0 0.44098,-0.45 0.44098,-1 z m -9.27083,-5.6042 c -0.3323,-0.3323 -1.1948,-0.3678 -1.91667,-0.079 -0.79773,0.3192 -0.56078,0.5562 0.60417,0.6042 1.05416,0.043 1.64479,-0.193 1.3125,-0.5253 z m 7.77083,-6.3958 c -0.33992,-0.55 -1.15398,-0.9931 -1.80902,-0.9847 -0.71561,0.01 -0.59227,0.4022 0.30902,0.9847 1.92112,1.2415 2.2673,1.2415 1.5,0 z m 177.99292,0.011 c 0.35034,-0.5669 -0.0511,-0.7345 -0.94098,-0.393 -1.73242,0.6647 -2.04939,1.3815 -0.61096,1.3815 0.51754,0 1.21592,-0.4448 1.55194,-0.9885 z m -1.49292,-6.5564 c 0,-0.1819 -0.86882,-0.2654 -1.93072,-0.1854 -1.0619,0.08 -1.72249,0.4824 -1.46798,0.8942 0.42244,0.6835 3.3987,0.063 3.3987,-0.7088 z m -183.26949,-0.058 c -0.33155,-0.3315 -0.19269,-1.6815 0.30858,-3 0.57559,-1.5139 0.55207,-2.3972 -0.0638,-2.3972 -0.53639,0 -1.0315,0.45 -1.10025,1 -0.24859,1.9887 -0.4187,2.5206 -1.19933,3.75 -0.52303,0.8238 -0.20521,1.25 0.93198,1.25 0.94913,0 1.45441,-0.2712 1.12286,-0.6028 z m 0.13117,-12.0638 c -0.81506,-0.9821 -0.77862,-1.7285 0.13832,-2.8333 0.92138,-1.1102 0.95545,-1.8488 0.13112,-2.842 -0.61257,-0.7381 -0.89267,-1.5631 -0.62244,-1.8334 0.27022,-0.2702 -0.14491,-0.4913 -0.92253,-0.4913 -1.1856,0 -1.16704,0.3767 0.11501,2.3333 1.44002,2.1978 1.40254,2.3334 -0.64517,2.3334 -1.49586,0 -1.92644,0.3899 -1.38032,1.25 0.43654,0.6875 0.85685,1.5875 0.93402,2 0.24834,1.3274 0.36637,1.4166 1.87443,1.4166 1.12339,0 1.21516,-0.3241 0.37756,-1.3333 z m -4.13251,-7.9375 c -0.3323,-0.3323 -1.1948,-0.3678 -1.91667,-0.079 -0.79773,0.3192 -0.56078,0.5562 0.60417,0.6041 1.05416,0.043 1.64479,-0.1929 1.3125,-0.5252 z m 3.26689,-12.3983 c -1.22249,-0.7555 -4.99606,-0.1998 -4.99606,0.7357 0,0.275 0.9,0.2647 2,-0.023 1.1,-0.2876 2,-0.089 2,0.4424 0,0.531 0.49804,0.6576 1.10676,0.2814 0.79029,-0.4884 0.75863,-0.8992 -0.1107,-1.4365 z m -4.99606,-20.6052 c 0,-0.8276 -1.94173,-1.2956 -2.38691,-0.5753 -0.28881,0.4673 0.13009,0.8496 0.9309,0.8496 0.8008,0 1.45601,-0.1234 1.45601,-0.2743 z m 174.60503,-24.5618 c 0.49057,-0.7937 0.1713,-0.9582 -0.99292,-0.5114 -1.02591,0.3937 -1.46854,0.2581 -1.10067,-0.3372 0.33843,-0.5475 -0.0856,-1.2645 -0.94231,-1.5933 -0.85671,-0.3287 -1.26921,-1.1131 -0.91668,-1.7429 0.47787,-0.8538 0.32829,-0.8572 -0.58785,-0.013 -0.97026,0.8939 -0.95052,1.5777 0.0938,3.25 1.46366,2.3437 3.33714,2.7431 4.44659,0.9479 z m -5.60503,-6.83 c 0,-0.55 -0.19844,-1 -0.44098,-1 -0.24254,0 -0.7191,0.45 -1.05902,1 -0.33992,0.55 -0.14148,1 0.44098,1 0.58246,0 1.05902,-0.45 1.05902,-1 z m 4,-0.6077 c 0,-0.8276 -1.94173,-1.2956 -2.38691,-0.5753 -0.28881,0.4673 0.13009,0.8496 0.9309,0.8496 0.8008,0 1.45601,-0.1234 1.45601,-0.2743 z m 12.25,-0.055 c -0.6875,-0.2774 -1.8125,-0.2774 -2.5,0 -0.6875,0.2774 -0.125,0.5044 1.25,0.5044 1.375,0 1.9375,-0.227 1.25,-0.5044 z m -2.52083,-1.9419 c -0.33229,-0.3323 -1.1948,-0.3678 -1.91667,-0.079 -0.79773,0.3192 -0.56078,0.5562 0.60417,0.6042 1.05416,0.043 1.64479,-0.1929 1.3125,-0.5252 z m -11.20271,-9.2027 c -0.30789,-0.3079 -1.11479,-6e-4 -1.79313,0.6828 -0.98026,0.9876 -0.8654,1.1025 0.5598,0.5598 0.98622,-0.3755 1.54122,-0.9347 1.23333,-1.2426 z m -2.52646,-1.3112 c 0,-0.55 -0.45,-0.7219 -1,-0.3819 -0.55,0.3399 -1,1.068 -1,1.618 0,0.55 0.45,0.7219 1,0.382 0.55,-0.34 1,-1.0681 1,-1.6181 z m -268.3061,-87.88196 c -0.62281,-1.65 -1.48372,-3 -1.91314,-3 -0.42942,0 -0.78076,-0.4549 -0.78076,-1.0109 0,-0.55599 -0.84673,-2.91849 -1.88163,-5.25 -1.03489,-2.3315 -2.40046,-5.5891 -3.03459,-7.2391 -1.6007,-4.165 -4.17579,-7.16481 -6.83378,-7.96089 -3.04917,-0.91324 -2.92445,1.10649 0.25,4.04847 1.375,1.27431 2.5,3.39342 2.5,4.70913 0,1.31572 1.09756,3.66952 2.43902,5.23068 1.34146,1.56116 2.35397,3.16115 2.25,3.55554 -0.16842,0.63891 7.18967,9.91707 7.86478,9.91707 0.14986,0 -0.2371,-1.35 -0.8599,-3 z m 9.8061,2 c 0.33992,-0.55 0.14148,-1 -0.44098,-1 -0.58246,0 -1.05902,0.45 -1.05902,1 0,0.55 0.19844,1 0.44098,1 0.24254,0 0.7191,-0.45 1.05902,-1 z m -3.42017,-6.91317 c -4.74309,-9.32008 -5.82189,-11.72575 -6.48341,-14.45763 -0.38234,-1.57894 -1.42931,-3.60394 -2.3266,-4.5 -1.50792,-1.50584 -1.58573,-1.47777 -1.02765,0.3708 1.56304,5.17743 5.2123,15.0528 5.72773,15.5 1.36074,1.1806 4.00793,6.00135 3.30315,6.01531 -0.42518,0.008 -0.11108,0.43396 0.69799,0.94563 2.31981,1.4671 2.34634,0.52262 0.10879,-3.87411 z m 12.691,2.72567 c -0.61807,-1.85422 -2.77083,-2.16176 -2.77083,-0.39583 0,0.87083 0.7125,1.58333 1.58333,1.58333 0.87084,0 1.40521,-0.53438 1.1875,-1.1875 z m 7.22917,-2.27354 c 0,-0.25358 -0.84026,-1.26608 -1.86724,-2.25 -1.02698,-0.98393 -2.44784,-3.58896 -3.15747,-5.78896 -0.70963,-2.2 -1.84893,-4.45 -2.53178,-5 -0.68286,-0.55 -1.56393,-2.08057 -1.95793,-3.40127 -0.5759,-1.93038 -0.40828,-2.28304 0.85477,-1.79837 1.27667,0.48991 1.18692,-0.0909 -0.47884,-3.09872 -2.78301,-5.02526 -3.67899,-5.84086 -4.38767,-3.99405 -0.32545,0.84811 0.51571,4.26744 1.86924,7.59852 1.35354,3.33107 2.26919,6.24828 2.03478,6.48269 -0.2344,0.23441 0.25968,0.99542 1.09797,1.69114 0.8383,0.69572 1.52417,1.94863 1.52417,2.78424 0,0.83561 1.3459,2.80551 2.9909,4.37756 2.84802,2.72172 4.0091,3.41598 4.0091,2.39722 z m -13.14704,-6.28896 c -1.16543,-3.1625 -2.55363,-6.29974 -3.08488,-6.97165 -0.81726,-1.03364 -1.96929,-4.73553 -3.11183,-9.99941 -0.44822,-2.06506 -1.31882,-2.39044 -2.52081,-0.94213 -0.8784,1.05841 -0.75256,2.30249 0.53351,5.27416 0.92569,2.13897 1.84182,4.78903 2.03584,5.88903 0.35333,2.00319 6.89611,12.5 7.79139,12.5 0.26166,0 -0.47779,-2.5875 -1.64322,-5.75 z m 18.62387,4.78749 c 0.32717,-0.52938 -0.55385,-3.22938 -1.95783,-6 -1.40398,-2.77062 -2.20761,-5.04438 -1.78585,-5.0528 0.42177,-0.008 0.24933,-0.34592 -0.3832,-0.75 -0.63253,-0.40408 -1.30753,-1.62457 -1.5,-2.71219 -0.34466,-1.9476 -0.73256,-2.55786 -4.78156,-7.5225 l -2.03892,-2.5 1.05543,3.5 c 0.58049,1.925 1.7243,4.7375 2.5418,6.25 0.8175,1.5125 1.16619,2.75 0.77485,2.75 -0.39134,0 -0.0242,0.7875 0.81586,1.75 2.36286,2.70724 5.03676,9.02973 4.31366,10.19973 -0.35701,0.57765 0.0259,1.05027 0.8509,1.05027 0.825,0 1.76768,-0.43313 2.09486,-0.96251 z m -33.24214,-28.41312 c 0.40408,-0.6184 0.74158,-0.81043 0.75,-0.42672 0.008,0.38371 1.68132,0.12087 3.71756,-0.5841 l 3.70224,-1.28175 0.22132,-16.4159 c 0.12173,-9.02874 0.45231,-18.2159 0.73464,-20.4159 1.27073,-9.90199 1.62598,-13.62117 2.18448,-22.87026 0.32781,-5.42864 1.0143,-10.97043 1.52554,-12.3151 0.51124,-1.34466 0.92953,-4.64339 0.92953,-7.33052 0,-5.58419 1.81131,-14.98412 2.88736,-14.98412 0.39689,0 0.83167,-1.86502 0.96617,-4.14448 0.1345,-2.27947 0.91586,-5.44268 1.73637,-7.02937 0.82051,-1.58669 1.22189,-3.32167 0.89195,-3.85552 -0.32994,-0.53385 0.10167,-0.97063 0.95913,-0.97063 0.89235,0 1.55902,-0.85524 1.55902,-2 0,-1.1 0.94667,-2.94667 2.1037,-4.1037 1.15704,-1.15704 2.2129,-2.61954 2.34635,-3.25 0.13345,-0.63047 0.78015,-2.4614 1.43711,-4.06875 0.65696,-1.60735 0.97785,-3.48694 0.71309,-4.17689 -0.26475,-0.68994 0.20567,-1.82463 1.04539,-2.52153 1.00101,-0.83077 1.33618,-2.22002 0.97332,-4.03434 -0.3044,-1.52199 -0.11461,-3.03846 0.42176,-3.36995 0.96681,-0.59753 0.74351,-3.45615 -0.51686,-6.61654 -0.3601,-0.90293 -4.39965,-4.39754 -8.97679,-7.7658 -4.57714,-3.36826 -8.56741,-7.06227 -8.86726,-8.20892 -0.29986,-1.14665 -1.02548,-1.78798 -1.6125,-1.42518 -0.58702,0.3628 -1.07016,0.29558 -1.07363,-0.14938 -0.003,-0.44496 -1.36557,-1.58253 -3.02686,-2.52792 -2.44893,-1.39362 -2.9055,-2.17724 -2.41265,-4.14091 0.33434,-1.3321 0.16101,-2.69819 -0.38517,-3.03574 -0.54618,-0.33756 -0.77303,-2.00988 -0.5041,-3.71626 0.51879,-3.29178 -1.2727,-8.888192 -2.84524,-8.888192 -0.51573,0 -0.64735,-0.46979 -0.29248,-1.04398 0.35487,-0.57418 -0.0691,-2.13413 -0.94212,-3.46654 -0.87302,-1.33241 -2.76548,-4.57512 -4.20546,-7.20602 -2.48114,-4.53315 -9.05482,-12.28346 -10.41862,-12.28346 -0.34821,0 -0.70463,1.82516 -0.79204,4.05592 -0.11092,2.83074 0.1883,3.84132 0.99057,3.34549 0.67561,-0.41755 0.87835,-0.27169 0.49177,0.35381 -0.8109,1.31206 1.403,11.32926 2.37158,10.73065 0.38412,-0.2374 0.72969,3.78429 0.76792,8.937092 0.0882,11.88305 -1.74121,16.18083 -6.76369,15.88991 -3.92868,-0.22755 -6.75784,-2.59494 -8.99011,-7.52274 l -1.68054,-3.70988 -3.73331,4.46624 c -2.09413,2.50525 -3.42175,4.97034 -3.02371,5.61438 0.41246,0.66737 0.27082,0.87697 -0.33824,0.50055 -1.28966,-0.79705 -2.3715,3.12998 -1.76757,6.41618 0.49354,2.68554 3.54936,14.33183 6.84349,26.08172 1.18102,4.21263 2.55785,7.4056 3.05961,7.0955 0.50177,-0.31011 0.60309,-0.0635 0.22516,0.54799 -0.37793,0.6115 0.71636,3.5987 2.43176,6.63822 3.39334,6.01268 3.68914,7.25137 4.4971,18.83225 l 0.54231,7.77327 -3.52711,3.3265 c -4.56807,4.30824 -9.12962,5.67726 -12.81593,3.84634 -1.5125,-0.75123 -2.75,-1.78291 -2.75,-2.29263 0,-0.50972 -0.83474,-0.92676 -1.85497,-0.92676 -1.02023,0 -3.02096,-1.40746 -4.44607,-3.12768 -3.28864,-3.96967 -5.28871,-3.26005 -6.21185,2.20393 -0.46606,2.75862 -1.79651,5.29803 -3.84966,7.34779 -4.35119,4.34404 -12.06077,8.45859 -15.65752,8.35633 -1.65446,-0.047 -3.22071,0.12708 -3.48057,0.38693 -1.10085,1.10086 -1.44486,9.12064 -0.56035,13.06351 1.21719,5.42586 4.35737,7.95829 12.99124,10.4769 7.62503,2.22433 18.63024,2.08805 23.22421,-0.28759 2.99605,-1.54932 6.66532,-1.82201 8.53341,-0.63419 2.26851,1.44243 -4.12564,7.32897 -8.61505,7.93113 -3.31159,0.44418 -3.85627,0.81907 -3.13852,2.16019 0.47766,0.89251 0.85949,1.98897 0.84852,2.43656 -0.0607,2.47679 9.08625,17.10541 13.76397,22.01256 2.99926,3.14636 5.45321,6.16008 5.45321,6.69715 0,0.53706 0.675,0.97648 1.5,0.97648 0.825,0 1.5,0.5051 1.5,1.12244 0,0.73143 0.58942,0.64433 1.69195,-0.25 1.11018,-0.90053 1.437,-0.9479 0.95046,-0.13777 -0.45901,0.7643 0.99172,3.04343 3.80804,5.98252 2.50225,2.61133 4.54955,5.12898 4.54955,5.59479 0,1.17272 6.3306,-0.304 7.23469,-1.68761 z M 153.01207,200.7696 c 0.67833,-0.68342 1.48524,-0.99067 1.79313,-0.68278 0.30788,0.30789 -0.24712,0.86705 -1.23334,1.24258 -1.42519,0.54268 -1.54006,0.42782 -0.55979,-0.5598 z m -1.73333,-2.93493 c 0,-0.58246 0.45,-0.7809 1,-0.44098 0.55,0.33992 1,0.81648 1,1.05902 0,0.24254 -0.45,0.44098 -1,0.44098 -0.55,0 -1,-0.47656 -1,-1.05902 z m -36,4.22569 c 0,-0.45834 -0.675,-0.83334 -1.5,-0.83334 -0.825,0 -1.5,0.375 -1.5,0.83334 0,0.45833 0.675,0.83333 1.5,0.83333 0.825,0 1.5,-0.375 1.5,-0.83333 z m 47.72844,-10.97768 c 1.62088,-1.02968 1.83561,-13.74129 0.29882,-17.68899 -0.64232,-1.65 -1.10248,-3.21375 -1.02256,-3.475 0.0799,-0.26125 -0.28116,-0.61715 -0.80238,-0.79089 -0.52122,-0.17374 -1.18938,0.6084 -1.4848,1.73809 -0.35993,1.37634 0.0929,2.39118 1.37267,3.07607 2.54449,1.36177 2.59052,7.88951 0.0775,10.99293 -1.06616,1.31665 -1.6446,3.24452 -1.38342,4.61078 0.47894,2.50543 0.99533,2.77502 2.94415,1.53701 z m 64.27156,-59.56655 c 0,-0.20765 -0.7875,-0.99515 -1.75,-1.75 -1.58606,-1.24387 -1.62143,-1.2085 -0.37756,0.37756 1.30637,1.66575 2.12756,2.19548 2.12756,1.37244 z m -53.35595,-25.87244 c -0.29833,-2.3375 -0.56529,-4.8676 -0.59324,-5.62245 -0.0409,-1.103602 -0.34339,-1.129622 -1.54444,-0.132842 -1.62455,1.348262 -1.23619,6.421002 0.66717,8.714402 1.7505,2.10922 2.0424,1.52182 1.47051,-2.95911 z m -0.64405,-8.797972 c 0,-1.80547 -1.80184,-1.81783 -2.27313,-0.0156 -0.35042,1.33999 -0.0846,1.75435 0.88631,1.38176 0.76275,-0.29269 1.38682,-0.90747 1.38682,-1.36616 z m -9.13883,-2.70203 c 2.30815,-9.22509 2.31951,-9.43146 0.5001,-9.0809 -2.14088,0.41248 -3.39586,4.84294 -2.65864,9.38585 0.30748,1.89478 0.70783,3.44505 0.88966,3.44505 0.18184,0 0.75284,-1.6875 1.26888,-3.75 z m 3.1584,-21.69068 c -0.64886,-1.96607 -2.03358,-4.03163 -3.07715,-4.59014 -1.50109,-0.80336 -1.78153,-0.71346 -1.3426,0.43036 0.30515,0.7952 1.19502,1.69149 1.97749,1.99176 0.78248,0.30026 1.42269,1.61005 1.42269,2.91065 0,1.30059 0.3,2.66472 0.66666,3.03138 1.34811,1.34811 1.50161,-0.29342 0.35291,-3.77401 z M 471.83638,595.98695 c -0.30822,-0.4987 0.34022,-0.6712 1.44098,-0.3833 2.33499,0.6106 2.63015,1.2901 0.5604,1.2901 -0.79254,0 -1.69316,-0.4081 -2.00138,-0.9068 z M 251.27874,486.89415 c 0,-0.55 0.47656,-1 1.05902,-1 0.58246,0 0.7809,0.45 0.44098,1 -0.33992,0.55 -0.81648,1 -1.05902,1 -0.24254,0 -0.44098,-0.45 -0.44098,-1 z m 44.39217,-26.4663 c 0.31427,-2.1413 1.60783,-3.1545 1.60783,-1.2594 0,0.8842 -0.4105,1.8613 -0.91222,2.1714 -0.50171,0.3101 -0.81474,-0.1003 -0.69561,-0.912 z m 9.62789,-123.05793 c 0.69572,-0.83829 1.47088,-1.31823 1.72258,-1.06653 0.69349,0.6935 -0.71555,2.5907 -1.9241,2.5907 -0.6631,0 -0.58723,-0.57378 0.20152,-1.52417 z"
       id="path3418"
       style="fill:#000000" />
  </g>
</svg>
